<?xml version="1.0" encoding="UTF-8" standalone="no"?><!DOCTYPE svg PUBLIC "-//W3C//DTD SVG 1.1//EN" "http://www.w3.org/Graphics/SVG/1.1/DTD/svg11.dtd"><svg width="100%" height="100%" viewBox="0 0 360 360" version="1.1" xmlns="http://www.w3.org/2000/svg" xmlns:xlink="http://www.w3.org/1999/xlink" xml:space="preserve" xmlns:serif="http://www.serif.com/" style="fill-rule:evenodd;clip-rule:evenodd;stroke-linecap:round;stroke-linejoin:round;stroke-miterlimit:1.5;"><rect id="Artboard1" x="0" y="0" width="360" height="360" style="fill:none;"/><g><circle cx="192.467" cy="180" r="150" style="fill:#ebebeb;fill-opacity:0;stroke:#00cae3;stroke-width:9.5px;"/><g><path d="M174.974,212.348c-1.112,0 -1.112,2.542 -1.112,3.178c1.112,0 1.112,-2.384 1.112,-3.178l1.271,-1.112c0,-0.159 0,-0.635 0.159,-0.635c0.477,0 0.477,0.794 0.477,0.953l-0.954,1.43l0,0.317c0,0.636 -0.317,0.954 -0.953,0.954l-0.953,3.654l-0.794,0.953c0.476,0 0.635,0.635 0.635,0.953c0.318,0 0.477,0.159 0.477,0.318c0,0.635 -0.795,1.271 -1.112,1.747c0,0.477 -0.159,1.113 -0.636,1.271c0,0.477 -0.159,1.112 -0.635,1.271l-0.954,2.542l0.159,1.271c1.112,0 1.271,-0.953 1.43,-1.906l1.112,-0.477c0,-0.476 0,-2.701 0.636,-2.859c0,-1.271 0.635,-3.813 1.747,-3.813c0.159,-0.636 0.636,-3.178 1.43,-3.178c0,-0.635 0.159,-1.271 0.477,-1.747c0,-0.477 0.159,-1.271 0.635,-1.589l1.271,-3.178l1.112,-3.177c0.159,-0.318 1.43,-6.037 2.383,-6.037l1.271,-3.178c0.477,-0.476 0.636,-1.112 0.636,-1.747c0.794,0 0.635,-0.636 0.635,-1.112c0,-0.636 0.636,-0.953 0.636,-1.748l0.635,-0.635l0,-1.271l1.748,-3.019c0.635,-0.476 3.018,-4.13 3.018,-4.766l0.636,-1.43l1.271,-2.701c0,-1.112 0.635,-1.429 0.635,-2.224l0.954,-1.747l0.953,-0.636l1.589,0l0.317,-0.477l1.43,0l0.477,-0.635l3.972,-0.794c0,-0.795 1.747,-1.112 2.383,-1.112c0.317,-0.318 0.476,-0.954 0.476,-1.43l-1.112,-0.954c-0.635,0 -1.112,-0.158 -1.589,-0.635l-2.065,0c0.794,-0.477 1.907,-1.271 2.86,-1.271c0.794,-1.43 1.43,-2.86 2.701,-3.972l1.271,-0.318c0,-0.794 2.224,-1.27 2.859,-1.27c0.795,-0.477 1.907,-1.113 2.86,-1.113l0.477,-0.635l1.429,0l0.636,-0.477c1.112,0 6.831,-1.588 6.99,-2.224c-0.476,-0.318 -0.953,-0.318 -1.43,-0.318c-0.953,0 -0.953,0.636 -1.747,0.636l-0.795,0.635l-2.383,0l-1.271,0.636c-0.794,0 -3.177,-0.318 -3.654,0.635l-3.971,0l1.27,-1.271c0.795,0 2.225,-0.953 2.225,-1.906l-0.477,0c-0.635,0 -0.635,-0.318 -0.635,-0.794l-0.636,-1.271c2.542,-0.318 5.402,-1.748 7.944,-2.384c0.635,-0.158 5.242,-0.794 5.242,-1.588c0.477,0 1.271,-0.159 1.589,-0.636c1.271,0 9.215,-1.112 9.374,-1.747c0.317,0 1.588,0 1.588,-0.477l-0.159,-0.159l-2.383,0c0,-1.112 -1.747,-0.635 -2.383,-0.635c-1.747,0 -3.495,-0.318 -5.084,0.635l-0.794,-0.635l-3.019,0l-0.476,0.635c-1.907,-0.159 -4.131,-0.159 -6.037,0.318l-1.43,-0.318l-0.477,0.636l-1.43,0c-0.158,0.159 -0.476,0.635 -0.635,0.635c-0.318,0 -0.318,-0.318 -0.318,-0.476c-1.589,0.476 -3.177,0.476 -4.925,0.476c-0.159,0 -1.112,0 -1.112,-0.159c0,-0.476 0.636,-0.794 0.636,-1.271c0.476,-0.317 0.635,-1.112 0.635,-1.588l0.636,-0.477l0,-1.43c0.794,0 0.635,-1.112 0.635,-1.589c0,-0.794 0.636,-1.429 0.636,-2.224l0.794,-0.953c0.476,0 0.318,-0.477 0.318,-0.794c0,-0.318 0.317,-0.477 0.635,-0.477c0,-1.43 1.112,-2.383 1.112,-3.654c0.159,0 0.795,-0.318 0.795,-0.477c0,-0.158 -0.477,-0.158 -0.477,-0.158l-0.636,-0.636l0.636,-1.271c-0.794,-0.794 0.635,-0.794 0,-1.43l-0.318,-0.159l0.477,-1.429l0.953,-1.113c-0.159,-0.158 -0.477,-0.476 -0.477,-0.794c0,-0.159 2.542,-2.065 2.701,-2.224l-1.112,-1.112c0.795,-0.477 0.477,-1.112 0.953,-1.589l0.477,-1.589c0.953,-0.635 1.271,-1.588 2.224,-2.224c0,-1.271 0.318,-2.542 0.636,-3.813l0.953,-1.271c0.159,0 0.477,0 0.477,-0.318c0,-0.476 -0.477,-0.953 -0.795,-1.429l-2.542,1.588l0,-2.224c-0.318,-0.318 -0.635,-0.794 -0.635,-1.271c0,-0.318 0.159,-0.476 0.476,-0.476l0.795,-3.019c0.794,0 0.794,-1.112 0.794,-1.589c0,-0.317 0,-2.701 -0.477,-2.701c-1.271,0 -2.383,4.767 -2.541,4.767c-0.159,0 -0.159,-0.318 -0.159,-0.318c0,-0.477 -0.159,-1.112 -0.636,-1.271l0.636,-1.589l-0.795,-0.794c0,-0.636 0.318,-1.271 0.795,-1.589l0.794,-3.177c0.635,-0.477 0.159,-1.112 -0.318,-1.43c0.795,-0.477 1.271,-1.271 2.066,-1.748c-0.159,-0.317 -0.318,-0.476 -0.318,-0.794c0,-0.794 0.476,-1.43 0.953,-1.907c0.318,-0.635 0.477,-1.271 0.477,-1.906c0,-0.159 0,-0.318 -0.159,-0.318c-0.318,0 -0.477,0 -0.636,0.159l-2.859,5.561c-0.477,0.317 -0.159,0.635 -0.159,1.112c0,0.476 -1.43,1.271 -1.748,1.906c-0.635,0.159 -0.953,0.953 -0.794,1.589l-1.43,0.953c0.159,-0.318 0.318,-0.794 0.318,-1.112c0,-0.159 0,-0.318 -0.159,-0.318c-0.477,0 -1.271,1.271 -1.43,1.589l-1.589,0c0.318,-0.318 0.795,-0.953 0.795,-1.43l-0.159,-0.635l-0.636,-0.318l0,-0.318c0,-0.476 0.318,-0.953 0.636,-1.271l-0.159,-1.271c0.159,-0.159 0.477,-0.317 0.477,-0.635c0,-0.477 -0.795,-0.636 -1.113,-0.636c0.477,-0.635 1.748,-2.224 1.43,-3.018l1.589,-2.86l-0.159,-0.318c0,-0.953 1.271,-1.906 0.794,-2.859l0.159,-0.636c0,0 0,-0.318 -0.159,-0.318l-0.317,0.159c-0.636,1.748 -1.589,3.337 -2.701,4.766l-0.159,-0.317c0,-0.954 0.953,-2.066 1.43,-2.86l0.318,-1.906c0.476,-0.318 2.224,-2.225 1.906,-2.701c0.159,0 0.318,-0.159 0.318,-0.318c0,-0.318 -0.477,-0.477 -0.636,-0.636l-1.588,-0.158c0.635,-1.271 2.542,-6.673 3.495,-7.309l-0.159,-0.635c0,-0.477 0.318,-0.635 0.635,-0.794l-0.158,-1.589l0.635,-0.794l-0.159,0c-0.159,0 -0.159,-0.318 -0.159,-0.318c0,-1.112 0.795,-2.701 1.271,-3.813c-0.635,0.477 -3.336,5.402 -3.336,5.56l0.159,0.159c0,0.795 -2.542,2.224 -1.748,3.019c-0.794,0.635 -3.654,3.177 -3.654,3.972c-0.476,0.159 -1.589,0.953 -0.953,1.429l-1.589,2.066l-0.317,1.271c-0.318,0.318 -2.066,1.747 -1.748,2.065l-0.794,1.112c0.158,0.159 0.317,0.477 0.317,0.636c0,0.635 -5.401,6.513 -6.355,6.99c-0.158,0.636 0.636,0.636 0.636,0.953c0,0.318 -1.112,1.271 -1.43,1.589l0.159,0.477c0,0.635 -0.636,1.588 -0.953,2.065c-0.159,0.159 -0.318,0.318 -0.318,0.477c0,0.317 -0.477,0.476 -0.635,0.635c0.158,0.318 0.317,0.636 0.317,0.953c-0.476,0.636 -3.495,6.991 -3.336,7.626l-0.794,0.159c-2.066,1.43 -2.066,3.813 -2.383,6.196c-0.477,0.318 -1.113,0.477 -1.748,0.477c-0.794,0 0,1.271 -1.43,1.271c-0.318,0.635 -0.794,1.271 -1.43,1.747l0.636,0.318l-0.636,0.635c0,0.636 0,1.43 0.159,2.066c-0.477,0.159 -1.747,3.018 -2.065,3.495l0.159,0.318c0,0.794 -2.383,1.747 -1.748,2.383l-2.065,5.084l0,-0.318c-0.636,0 -0.477,0.635 -1.112,0.635l-1.43,2.86c-0.795,0 -0.318,1.748 -0.318,2.224c0,1.748 -1.43,-0.318 -1.43,2.542c0,0.636 -0.476,0.953 -0.476,1.589l-1.907,2.065l-0.794,4.449c-0.477,0.635 -0.953,1.588 -0.953,2.383c-0.795,0 -0.795,0.953 -0.636,1.429l-1.748,0.477c0,1.748 -5.242,1.43 -6.196,1.43l-7.625,0.159l-2.225,1.906c-4.13,0 -8.737,1.43 -12.709,1.112l-0.318,0.636l-1.748,-0.477c-1.429,0.477 -3.336,1.112 -4.925,1.112c-0.476,0 -0.635,-0.159 -0.635,-0.635c1.271,0 0.318,-4.131 1.43,-4.131c1.271,0 1.588,-0.794 1.588,-1.906l0.636,-1.271c0.794,0 0.794,-1.43 0.635,-1.907l0.636,-1.112c0.635,0 0.477,-0.318 0.477,-0.794c0,-0.318 0.317,-0.477 0.635,-0.477c0,-0.635 0.477,-2.859 1.271,-2.859c0,-0.795 -1.112,-0.795 -1.589,-0.636c-0.159,-0.159 -0.317,-0.635 -0.635,-0.635c-0.636,0 -0.795,1.271 -0.795,1.906c-0.953,0 -0.635,1.112 -0.635,1.748l-1.748,3.018l0.318,1.748c-0.159,0.318 -0.476,2.065 -0.794,2.065c-0.477,0 -0.953,-0.477 -1.271,-0.794c-0.318,1.271 -2.86,5.719 -3.813,6.831c0,0.159 0,1.112 -0.318,1.112c-0.635,0 0.159,-2.542 -1.43,-2.065c0,-1.112 0.636,-2.065 1.112,-3.019c0,-0.158 0,-0.476 0.318,-0.476c0.318,0 0.794,0.476 0.953,0.794c0,0.159 0,0.477 0.318,0.477c0.318,0 0.794,-0.477 0.953,-0.795c0,-0.317 -0.159,-2.224 0.636,-1.747c0,-0.953 -0.636,-0.953 -0.636,-1.748l2.066,-2.383l1.271,-3.654c0.159,0.159 0.317,0.477 0.476,0.477c0.318,0 0.318,-0.795 0.318,-0.953c0,-0.636 0.159,-1.43 0.635,-1.907c0,-1.112 1.589,-1.271 1.907,-2.383l0.477,-1.906l0.635,-1.113c0,-0.158 0,-0.794 0.318,-0.794c0.476,0 0.318,1.907 0.318,2.065c0,0.477 -0.159,1.113 -0.636,1.43l-0.477,1.43l1.748,-0.318l1.43,-0.953c0.318,0 0.476,-0.159 0.476,-0.476c0,-0.477 0.159,-0.636 0.636,-0.636l1.112,-3.177c0.636,-2.066 2.383,-4.131 2.383,-6.355c0,-0.159 -0.159,-0.318 -0.318,-0.318c-0.158,-0.159 -0.317,-0.477 -0.635,-0.477c-0.318,0 -0.318,0.636 -0.318,0.795l-0.476,1.112l-0.636,0l-0.794,0.476c-1.112,0 -0.477,1.907 -1.589,1.907c0,0.159 0,0.635 -0.159,0.635c-0.159,0 -0.477,-0.476 -0.477,-0.635c0.159,-0.636 0.795,-1.907 1.589,-1.907l0.318,-1.906c0.318,-0.477 0.635,-0.794 1.112,-1.112l0.636,-1.589c0.158,-0.159 0.635,-0.476 0.635,-0.635c0,-0.477 -0.953,-0.318 -1.271,-0.318c-0.635,0 -0.635,-0.477 -0.635,-0.953c0,-1.271 1.271,-2.066 1.271,-3.337l0.953,-1.112l0,-0.317c0,-0.477 0.159,-0.954 0.794,-0.954l0.477,-3.018c-0.953,0 -0.159,-0.953 0.159,-1.271c-0.477,-0.318 -0.636,-0.953 -0.636,-1.43c-0.159,-0.159 -0.635,-0.477 -0.635,-0.636c0,-0.317 0.476,-0.317 0.635,-0.317l0.636,-1.748l-1.271,-0.794l-0.318,-1.589c-0.794,0 -1.112,-0.635 -2.065,-0.635c0,-2.383 -2.384,-2.701 -2.384,-4.29c0,-0.159 0,-1.112 -0.158,-1.112c-0.477,0 -0.795,1.748 -1.589,1.748l-1.271,-1.271c-0.159,0.476 -0.794,0.635 -1.271,0.635l0,1.112c-0.794,0.159 -1.748,-0.159 -2.542,-0.476c0,0.635 -1.112,2.542 -1.112,1.271l-2.383,0c-0.477,0.317 -0.636,0.953 -0.636,1.429l-1.906,0.318c0,-1.112 -0.636,-0.476 -0.953,0c-0.318,-0.476 -0.795,-1.112 -0.795,0c-0.794,0 -0.794,-1.112 -0.635,-1.589c0.159,-0.158 0.476,-0.317 0.476,-0.635c0,-0.318 -0.635,-0.318 -0.794,-0.318l-0.953,1.271c-1.112,0 -0.636,2.542 -2.383,2.542c-0.477,0.318 -0.318,1.43 -0.318,1.907c0,0.635 -0.159,1.112 -0.794,1.112c0,1.429 -1.271,2.224 -1.271,3.495l-0.954,0c-0.635,0 -0.953,0.159 -0.953,0.794l-0.794,1.112c-0.953,0 -1.43,0.636 -2.224,0.636c0,0.794 -0.636,0.953 -1.271,0.635l0.476,1.748c0.159,0 0.318,0 0.318,0.159c0,0.476 -0.477,0.794 -0.794,1.112c-0.954,0 -0.477,3.018 -1.748,3.018c-1.43,2.066 -2.542,4.449 -3.654,6.673c0,0.635 -0.635,0.635 -0.635,1.43c-0.318,0.476 -0.477,1.112 -0.477,1.747c-0.635,0 -0.635,0.477 -1.271,0.477c0,1.43 -1.271,2.224 -1.271,3.654l-1.748,3.019c0,1.271 -1.271,1.906 -1.271,3.177c-0.794,0 -0.635,0.636 -0.635,1.271c0,0.318 -0.159,0.477 -0.477,0.477l-0.158,1.429c-0.636,1.748 -3.019,3.496 -3.019,5.402l-0.636,1.112c-0.953,0 -0.158,1.112 -1.112,1.112l-0.635,1.589l0,0.953l-0.636,0.477l-0.794,1.271c-0.477,0 -0.318,0.476 -0.318,0.794c0,0.318 -0.317,0.477 -0.635,0.477c0,0.794 -0.159,3.018 -1.271,3.018c-0.477,1.43 -1.271,3.654 -2.383,4.767l0,0.317l-2.701,0.159c-1.112,0.794 -2.86,0.636 -4.131,0.477c-0.794,0.476 -3.336,0.794 -4.448,0.635l-1.43,0.795l-1.748,-0.477l-1.906,0.794l-0.318,0c-2.224,0 -7.943,3.337 -9.85,2.701c-0.317,0.636 -0.953,0.953 -1.588,0.636c-1.271,0.317 -2.86,0.953 -4.131,0.794l-0.636,0.794l-1.271,-0.317c-0.635,0 -1.271,0.317 -1.747,0.635l-0.636,0c-0.476,-0.159 -0.794,0 -0.635,0.477l-1.43,-0.159c-1.112,0.953 -2.701,0.794 -3.972,1.589c-0.318,-0.159 -0.794,-0.318 -1.112,-0.318l-0.794,0l-0.318,0.794l-0.794,0.159l-0.477,-0.159c-0.159,0 0.159,0.477 -0.953,0.159l-0.636,0.477l-1.906,0.159l-1.748,0.794l-0.317,-0.159c-0.159,0 -0.477,0.159 -0.477,0.477c-0.636,-0.159 -1.589,-0.159 -2.224,0c-0.318,-0.159 -0.795,-0.318 -0.953,0.158c-0.954,0.159 -1.907,0.318 -2.701,0.795c0.317,0.318 0.953,0.635 0.953,1.112l-0.636,0l-2.224,0.318c-2.065,0.317 -4.289,0.794 -6.196,1.43c-0.317,0 -1.588,0 -1.588,0.317c0,0.159 0.317,0.318 0.317,0.318l2.701,0.159l0.794,-0.477l2.225,0.477c0.953,-0.159 1.906,-0.318 2.859,0l0.795,-0.318c1.747,0.477 4.13,-0.159 6.037,0l0.635,-0.318c0.159,0 1.112,0.159 1.112,-0.317c0.477,0.317 2.066,0 2.701,0c0.636,0 2.383,-0.159 2.86,0.159c0.635,-0.477 1.43,-0.636 2.065,-0.318l1.43,0l0.953,-0.477c1.43,0.318 3.019,-0.318 4.29,-0.159l0.635,0.477c0.477,-0.159 1.271,-0.477 1.748,-0.477c0.318,0 1.589,-0.159 1.589,0.477l0,0.318l-0.954,0.159l-0.476,-0.159c-0.159,0 -0.477,0.159 -0.477,0.317c-2.065,0.954 -4.766,0.954 -7.149,1.907l-0.477,-0.159c-0.317,0 0.318,0.794 0.318,0.794c-0.953,0 -1.906,0 -2.701,0.477c-0.317,0 -1.588,0.159 -1.588,0.477c0,0.476 0.794,0.476 0.953,0.476c0.635,0 1.271,-0.159 1.747,-0.476c0.636,0.317 1.43,0 1.907,-0.318l2.701,0.159c0.635,-0.159 1.429,-0.477 2.065,-0.159c0.953,-0.636 2.224,-0.795 3.336,-0.477l0.953,-0.318c1.271,0.636 4.608,-0.476 5.879,0.159c0.317,-0.476 0.794,-0.635 1.271,-0.635c0.317,0 1.112,0 1.112,0.476c0,0.795 -3.495,1.113 -4.29,1.113l-0.476,-0.159c-0.159,0 0.317,0.476 0.476,0.476l-0.317,0.795l-0.636,-0.159c-0.635,0 -1.748,0.635 -2.86,0.476l0.159,0.795l1.589,0.476c0.794,-0.158 1.589,-0.158 2.383,0l0.794,-0.635l1.748,0l-0.636,0.635l-0.953,0.318l-0.635,-0.159c-0.159,0 0.476,0.318 0.635,0.477l1.748,1.747c-1.112,0.636 -2.383,0.954 -3.654,0.954l-0.477,0.317c-0.159,-0.158 -0.476,-0.158 -0.635,-0.158c-0.318,0 0,0.317 -0.795,0c-0.317,0.635 -1.112,0.794 -1.747,0.794l0.635,0.159c0.477,0 0.953,-0.159 1.43,-0.477c0.794,0.318 1.589,-0.318 2.542,0c1.589,0.159 6.196,-0.794 7.626,-1.271c0.318,-0.159 1.747,-0.159 1.747,-0.318l0.636,0.477l0.635,-0.635c0.636,0.158 1.748,0.317 2.066,-0.318c0.794,-0.318 1.747,-0.477 2.542,-0.477c0.159,0 -0.318,0.159 -0.318,0.318c-0.318,0.159 -0.318,0.477 -0.318,0.794c-0.635,0.795 -1.747,2.066 -1.747,3.019c-1.589,1.43 -2.225,3.654 -3.019,5.56c0,0.477 -1.112,3.178 -1.271,3.337l-1.271,2.7c0,1.43 -1.271,2.225 -1.271,3.496c-0.794,0.953 -1.271,2.065 -1.747,3.177c0,1.271 -0.477,2.701 -0.477,4.29c-1.112,0 -0.636,1.429 -0.636,2.065c-1.747,2.383 -3.654,5.402 -4.607,8.102c0,0.318 -0.953,3.019 -1.112,3.019l-1.112,2.383c0,1.271 -1.112,1.906 -1.112,3.177c-0.794,0.795 -1.271,1.907 -1.589,2.86c-0.794,0.795 -0.476,2.86 -0.476,3.813c-0.954,0 -0.477,1.271 -0.477,1.907c-0.794,0.794 -0.477,2.7 -1.271,2.859c0,0.953 -1.271,3.019 -1.589,3.813c0,0.953 -0.476,1.907 -0.476,2.86c-0.477,0.159 -0.636,0.794 -0.636,1.271c-0.159,0.635 -0.635,1.271 -1.112,1.747c0,1.112 -0.477,1.748 -0.477,2.383c-0.953,0 -0.476,0.636 0,0.954c-0.158,0.317 -2.383,3.495 -1.112,3.495l-0.476,1.271c0,0.635 0.476,1.112 0.476,1.747l-0.953,0.795l0.477,0.635l-0.795,1.271l-0.317,1.589l1.112,0.159l0,-1.112l0.317,1.112l-0.953,1.271l0.636,0.635l0.159,0c0.476,0 0.794,-0.476 0.794,-1.112c1.112,-0.794 2.383,-1.906 2.86,-3.336c0,-0.636 0.476,-0.795 0.476,-1.43l0.318,0c0.477,0 0.794,-0.477 0.794,-0.953c1.271,-2.066 3.496,-5.402 4.29,-7.626c0,-1.112 1.589,-1.271 1.589,-2.383l1.112,-1.43l0,1.43c-1.43,0.635 -0.954,2.542 -1.589,2.701c-0.318,0.317 -1.112,1.271 0,1.271l-0.636,1.588c0,0.477 -0.158,0.954 -0.476,1.271l-0.477,1.112c-0.159,0.159 -0.635,0.477 -0.635,0.795c0,0.318 0.318,0.318 0.476,0.318l0.159,1.429c-0.476,0.318 -0.953,0.795 0,0.795l0.477,0.953c0,-1.271 1.112,-1.906 1.112,-3.019l1.112,-2.065l0.477,-0.318l1.112,-2.542c0,-1.112 1.589,-1.271 1.589,-2.383c0.317,-0.476 0.794,-0.953 1.27,-1.271c0,-0.317 0,-0.953 0.477,-1.112l0.794,-1.43c0.318,0 0.954,0 1.113,-0.476l1.271,-0.477l0.794,-1.112c0.159,0.159 0.318,0.477 0.476,0.477c0.318,0 0.318,-0.477 0.318,-0.636c0.477,0 0.636,-0.794 0.636,-1.112l1.588,-2.542l0.318,0c0.477,0 0.795,-0.159 0.795,-0.635c0.317,-0.318 0.476,-0.795 0.476,-1.271l1.589,-2.383c0,-0.954 2.065,-1.112 2.701,-1.112c0,1.588 -0.954,1.112 -2.066,0.794c0,1.906 -1.112,4.131 -1.112,6.196c-0.476,0.318 -0.476,0.953 -0.476,1.43l2.542,1.906l0.635,0c0,-1.112 0,-1.112 1.112,-1.112c0,0.318 -0.318,2.701 0.477,2.701c0.476,0 0.635,-0.794 0.635,-1.112l0.477,0c0.635,0 0.318,-1.589 1.112,-2.066c0,-0.635 0.635,-0.953 1.112,-0.794l1.112,-2.383c0,-0.953 0.795,-1.43 1.589,-1.589l0.477,-1.43c0.476,-0.158 0.635,-0.794 0.635,-1.27l0.635,-0.795c0,-0.635 0.477,-1.112 1.113,-1.112l0.953,-0.953l0,0.476c0,0.318 0.318,0.477 0.635,0.477l0.954,-0.794l0,-1.271l-0.636,-0.159c0,-0.794 0.636,-1.112 0.636,-1.907l0.317,0c0.477,0 0.795,-0.158 0.795,-0.635l1.271,-2.224c-0.318,-0.159 -0.795,-0.636 -0.795,-0.954c0,-0.158 0.318,-0.158 0.477,-0.158l0.794,-1.43c0,-1.112 -0.953,-0.795 -1.747,-0.795l0.476,-1.271l0.318,0c0.477,0 0.794,-0.476 0.794,-0.953c0,-0.318 1.43,0 1.589,0c0.477,-0.953 0.953,-2.065 1.112,-3.177c0.318,0.159 0.636,-0.318 0.795,-0.477c-0.159,1.112 -1.113,1.748 -1.113,2.86c0,0.159 0,0.635 0.318,0.635c0.636,0 1.112,-0.476 1.43,-0.794c0,-0.794 0.635,-1.589 0.635,-2.383l-1.112,-0.636l0.636,-1.906c0.476,-1.589 1.747,-1.112 1.747,-1.906l0.636,-1.43c0.477,-0.318 0.635,-1.112 0.635,-1.589l0.795,-0.794l0,-0.159c0,-0.636 0.476,-1.112 1.112,-1.112l1.112,-1.112l0,0.317c0,0.477 0.159,0.795 0.635,0.795l1.113,-0.954l0,-1.271l-0.636,-0.317c0,-0.795 0.636,-1.271 0.636,-2.066l0.317,0c0.477,0 0.954,-0.159 0.954,-0.794l1.429,-2.383c-0.317,-0.159 -0.794,-0.636 -0.794,-0.953c0,-0.318 0.318,-0.318 0.477,-0.318l0.794,-1.589c0,-1.271 -0.953,-0.953 -1.906,-0.953c0.476,-0.318 0.635,-1.112 0.635,-1.748l1.271,-0.953l1.748,0.318c0.635,-2.065 1.747,-4.607 1.747,-6.832c0.318,-0.953 1.112,-1.747 1.907,-2.224c0,0.159 0,0.636 0.158,0.636c0.477,0 0.477,-0.953 0.477,-1.112c0.794,-1.43 1.748,-2.86 2.383,-4.29l1.271,-0.953c0,-0.159 0,-0.953 0.477,-0.953c0.159,0 0.159,0.476 0.159,0.635c-1.43,1.271 -2.225,4.131 -2.542,6.037l-1.112,0l-0.636,1.589c0,1.112 -0.635,2.065 -0.635,3.177c0,0.318 0.158,1.43 0.635,1.43c0.636,0 0.477,-1.43 0.477,-1.747c0,-0.477 0.159,-0.795 0.794,-0.795l1.112,-3.018c1.589,-1.43 3.178,-5.243 3.495,-7.308c-0.159,0 -0.317,0 -0.317,-0.159c0,-0.159 0.635,-0.477 0.794,-0.477c0.477,0 1.112,-0.159 1.43,-0.635l0.794,0l0.477,-0.636l1.589,0l0.476,-0.635l1.43,0l0.477,-0.477c5.401,0 10.008,-2.542 15.569,-2.542c1.271,0 7.944,-0.794 6.037,-2.224c0.477,-0.318 1.112,-0.794 0,-0.794c0,-0.159 0,-0.477 -0.159,-0.477c-0.318,0 -0.318,1.589 -0.794,1.589c-0.318,0 -0.794,-0.477 -0.953,-0.795c-0.318,0 -2.225,-0.317 -2.225,-0.476c0,-0.636 2.225,-1.589 2.225,-0.477c3.654,0 7.308,-1.589 11.121,-1.589c0.635,0 0.953,0.318 0.953,0.954l-0.794,1.429c-0.477,0 -1.271,0.159 -1.271,0.636l0.476,1.112c-0.318,0.953 -1.43,3.813 -1.43,4.925l-0.635,0.477l0,1.271c-0.795,0.794 -1.112,2.065 -1.271,3.177c-0.159,0 -1.271,2.86 -1.271,3.019c-0.477,0.476 -0.636,1.112 -0.636,1.747l-0.476,1.112c0,0.954 -0.795,2.542 -1.748,2.542c0,0.477 -0.159,1.271 -0.635,1.589l0,2.224l-1.271,0.477l0,1.906l-1.748,3.654l-0.159,2.225c-0.953,0.635 -2.065,2.7 -2.383,3.812c0,1.113 -3.018,8.897 -3.654,9.056l-0.635,3.972l-1.748,2.542l0,0.953c0,0.477 0.477,0.477 0.794,0.477c1.113,0 0.954,-0.159 0.954,-1.112l0.635,-0.795l0,-1.112l0.477,0c0.635,0 0.635,-0.318 0.635,-0.953c0.636,-0.318 1.271,-0.953 1.271,-1.748l0.795,-1.588c0.317,0 0.476,0.158 0.476,0.476c0,0.953 -0.794,2.066 -1.271,2.86c0.318,0.159 0.636,0.477 0.636,0.794c0,0.159 -0.477,0.159 -0.636,0.159c0,1.43 -1.271,2.383 -1.271,4.131c0,0.476 0.159,0.794 0.636,0.794c1.588,0 1.271,-0.476 1.271,-1.747l1.271,-0.795c0,-0.635 0.159,-1.43 0.635,-1.747l1.589,0.476c0.159,0 0.477,-0.159 0.477,0c0,0.318 -1.271,0.636 -1.43,0.636l0,3.495c0,0.476 0,1.43 -0.636,1.43l-0.635,1.271c-0.318,0.159 -0.636,0.476 -0.636,0.794c0,0.318 0.318,0.318 0.477,0.318c0,0.476 -0.159,3.654 0.794,3.654c0.318,0.318 1.112,1.271 0,1.271c0,1.271 0,1.271 1.271,1.271c0.636,0 0.477,-0.318 0.477,-0.795c0,-0.317 0.159,-0.476 0.476,-0.476c-0.476,-0.159 1.271,-0.636 1.43,-0.636l0,-1.747l1.748,-3.019c0,-0.476 -0.159,-0.953 -0.636,-0.476l0,-0.477c0,-0.159 0.477,-1.112 0.477,-1.112c0.159,0 0.159,0.318 0.159,0.476l1.271,1.113l0.476,1.429l1.907,-0.158l0,-1.43l0.635,-0.636c0,-0.159 0,-0.794 0.159,-0.794c0.318,0 0.636,1.271 0.636,1.43c0,0.476 -0.159,0.953 -0.636,0.953c0,0.159 -1.906,7.308 -2.542,7.308c0,1.748 -0.635,3.336 -0.635,5.243l0.635,-0.159c0,-0.636 0.636,-0.953 0.636,-1.589c0.476,-0.159 0.635,-0.794 0.635,-1.271c0,-1.43 1.748,-2.542 2.383,-3.813l0.636,-3.813c0.794,0 3.495,-3.654 3.495,-4.13c0,-0.159 0,-1.43 0.318,-1.43c0.317,0 0.317,0.794 0.317,0.953l1.589,0.953c0.953,0 1.907,-0.794 2.701,-1.271c0.159,0 0.635,0 0.635,-0.317c0,-0.477 -0.317,-0.954 -0.635,-1.271l-0.159,-2.066c-0.318,0 -0.477,-0.317 -0.477,-0.635c0,-1.589 0.795,-2.542 1.748,-3.654c2.383,0 3.813,0.794 3.813,-1.748c1.112,0 0.477,-2.542 1.43,-2.542c0,-0.794 0.318,-3.495 1.271,-3.495c0.476,-0.953 1.271,-1.906 2.065,-2.542c0,-2.065 1.907,-1.112 1.907,-3.018l0.635,-1.271c1.589,0 1.271,-3.337 1.271,-4.29l0.636,-1.112c0.635,0 0.476,-0.318 0.476,-0.794c0,-0.318 0.318,-0.477 0.636,-0.477l-0.159,-1.271l0.953,-1.112c0.159,0 0.635,0 0.635,0.318c0,0.317 -0.476,0.794 -0.794,0.953c0,0.477 -1.112,3.813 -1.271,3.972c0,0.635 -0.635,0.953 -0.635,1.588c0,0.477 0.159,1.271 0.635,1.589Zm9.215,-24.784c1.747,0 1.43,-4.289 3.018,-4.289c0,-0.318 -0.159,-0.954 -0.635,-0.954c-0.318,-0.317 -0.636,-0.794 -0.636,-1.112c0,-0.476 0.318,-0.476 0.636,-0.476l0,-1.748l1.271,-0.794c0,-0.795 0.635,-1.43 0.635,-2.224l1.748,0c0,0.953 0.953,0 1.43,0c0.317,0 0.317,0.953 0.317,1.112l-0.158,0c-1.113,0 -0.954,1.271 -0.954,2.065l-0.635,0.635c0,0 -0.795,2.384 -1.112,2.384c-0.318,0 -0.159,-1.748 -0.477,-1.907c-0.159,0.477 -0.159,0.953 -0.159,1.43c-0.794,0.635 -0.318,2.542 -1.271,2.701c0,0.794 -0.635,1.112 -0.635,1.906l-1.271,0.636c0,1.112 -1.112,2.542 -1.112,3.654l-1.271,1.112c0,-0.953 0.635,-0.159 0.635,-1.907c0,-0.794 -0.318,-0.953 -0.953,-0.953l-0.636,-0.635c-0.476,0.635 -1.27,1.747 -2.065,1.747l-0.635,-1.112c0.953,0 1.271,-1.747 1.271,-2.542c0.317,-0.476 1.112,-1.112 1.112,0l0.635,-2.383l0.318,-0.159c0.159,0 0.159,0.159 0.159,0.159l-0.477,0.953l1.43,0.795l0.477,1.906Zm-44.802,-9.691c-3.495,0 -8.579,2.86 -12.233,2.86c-0.318,0 -0.636,-0.159 -0.636,-0.477c-0.635,0 -0.635,0.477 -1.271,0.477l-0.158,-1.112c3.971,0 5.878,-1.748 12.233,-1.748l0.476,-0.635l0.953,0l0.636,0.635Zm39.241,18.27l1.748,0.477l-0.953,1.906l0,0.159c0,1.589 -2.86,0.318 -0.954,2.224c-0.953,0 0,1.112 -1.271,1.112c-0.159,-0.476 -0.317,-1.27 -0.317,-1.747c0,-1.589 1.747,-2.542 1.747,-4.131Zm-72.763,6.514c0,1.43 -1.271,2.224 -1.271,3.495c0,0.318 0,0.794 0.477,0.794c0.476,0 1.112,-0.635 1.43,-0.953c0,-0.953 0.794,-1.747 0.794,-2.701c-0.159,-0.476 -0.953,-0.635 -1.43,-0.635Zm-15.887,5.56c0,-0.953 0.635,-3.018 1.906,-3.018c0,1.112 -0.635,2.065 -1.271,3.018c-0.476,0.159 -0.635,0.636 -0.635,1.113c-0.318,0.794 -1.112,1.429 -1.748,1.906l0.795,-1.748c0.476,0 0.317,-0.476 0.317,-0.794c0,-0.318 0.318,-0.477 0.636,-0.477Zm71.015,20.654c0,0.794 0.636,1.43 0.636,2.224l1.906,-0.318l0,-0.635c0,-0.477 0,-1.271 -0.635,-1.271l-0.953,-0.636c0,0.477 -0.636,0.636 -0.954,0.636Zm-104.696,-47.821c0.636,-0.317 1.43,-0.476 2.066,-0.317c0.476,-0.159 1.112,-0.318 1.588,-0.318l2.383,0c0.159,0 0.636,0.159 0.636,0.477c0,0.317 -1.271,0.158 -1.43,0.158l-2.065,0.318c-0.636,-0.318 -0.159,0.477 -0.954,0.477l-0.158,0l-0.318,-0.477c0,0 -0.795,-0.476 -0.795,-0.159l-0.953,-0.159Zm125.35,11.916c0,-0.159 0.159,-1.748 0.476,-1.748c0.159,0 0.159,0.953 0.159,1.112l1.271,0.636l-0.635,1.271l-1.271,0.318c0,0 0,-0.477 -0.159,-0.477c-0.159,0 -0.477,0.635 -0.477,0.794c-0.317,0 -0.476,-0.159 -0.476,-0.317c0,-0.636 0.794,-1.271 1.112,-1.589Zm-104.061,38.923c0,-0.953 0.477,-2.7 1.589,-2.7c0,1.112 -0.477,1.906 -1.112,2.7c-0.477,0 -0.477,0.636 -0.477,0.954c-0.318,0.635 -0.953,1.112 -1.589,1.588l0.636,-1.43c0.476,0 0.476,-0.317 0.476,-0.794c0,-0.159 0.159,-0.318 0.477,-0.318Zm49.568,-86.902l1.43,0.476l-0.159,1.271l-1.907,0c0,-0.635 0.159,-1.271 0.636,-1.747Zm3.495,-9.056l1.271,0.477c0.159,0 0.635,0 0.635,0.317c0,0.318 -0.476,0.636 -0.635,0.795c0,0.317 -0.159,0.476 -0.477,0.476l-0.794,-0.159l0,-1.906Zm1.906,44.802c0,-0.477 0.636,-0.636 1.113,-0.636c0.158,0 1.271,0.159 1.271,0.477c-0.795,0.476 -1.907,0.794 -3.019,0.794c0,0 -0.477,0 -0.477,-0.159c0,-0.159 0.954,-0.476 1.112,-0.476Zm-35.904,8.102l1.27,1.112c-0.794,0.318 -0.317,1.271 -1.27,1.271c0,0 0,0.477 -0.159,0.477c-0.159,0 -0.477,-1.112 -0.477,-1.271c0.477,-0.318 0.636,-1.112 0.636,-1.589Zm-33.363,57.194l0.158,1.271l-0.317,0.318c-0.159,0.317 -0.159,0.635 -0.159,0.953l-1.112,0.635l-0.477,1.112c0,0.159 0,0.954 -0.159,0.954c-0.159,0 -0.318,-1.271 -0.318,-1.43c0.636,-0.477 1.43,-1.112 1.43,-1.907l0.954,-1.906Zm107.397,-39.559l1.271,0l0,1.43l-1.271,0.317l0,-1.747Zm13.504,-26.849c0,0.317 -0.159,0.953 -0.636,0.953c-0.159,-0.159 -0.635,-0.477 -0.635,-0.636c0,-0.317 0.476,-0.317 0.635,-0.317c0,-0.636 -0.318,-1.748 0.636,-1.748l0,1.748Zm17.476,-80.23l1.271,-1.271l0,-0.477c0,-0.159 0,-1.112 0.317,-1.112c0.159,0 0.636,0.635 0.636,0.794c0,0.159 0,0.159 -0.159,0.159l-0.318,0.636c-0.635,0.158 -0.476,0.953 -0.953,1.271l-0.794,0Zm1.271,55.446c0,-0.318 0.476,-0.318 0.635,-0.318c0.318,0 1.906,0.318 1.906,0.635c0,0.159 -0.635,0.159 -0.635,0.159c-0.635,0 -1.271,-0.317 -1.906,-0.476Zm-109.304,46.708c0,-0.159 0,-1.112 0.318,-1.112c0.317,0 0.476,0.476 0.476,0.635c0,0.477 -0.476,0.953 -0.953,0.953c-0.159,0 -0.318,-0.158 -0.318,-0.317c0,-0.159 0.318,-0.159 0.477,-0.159Zm42.578,-21.924l1.588,-0.159l1.589,0.794c-1.112,0 -2.224,-0.318 -3.177,-0.635Zm37.017,23.671c0,-0.158 0,-1.112 0.317,-1.112c0.318,0 0.318,0.795 0.318,0.954l-0.635,0.794c-0.159,0 -0.636,-0.318 -0.636,-0.477c0,-0.159 0.477,-0.159 0.636,-0.159Zm-5.561,7.309c0.318,0.158 0.636,0.635 0.636,0.953c0,0.318 -0.477,0.318 -0.636,0.318c-0.159,0 -0.477,0 -0.477,-0.318c0,-0.318 0.318,-0.636 0.477,-0.953Zm-4.766,5.56l0.635,0.318l0,1.271l-0.635,-0.159l0,-1.43Zm-10.327,16.046l0.636,0.636l-0.636,0.635l-0.635,-0.635l0.635,-0.636Zm-44.96,-39.718l0.635,0.318l0,1.271l-0.635,-0.318l0,-1.271Zm-21.925,21.924c0.159,0 1.43,0.318 1.43,0.318c0,0.159 -0.794,0.159 -0.794,0.159c0,0.159 0,0.477 -0.159,0.477c-0.159,0 -0.477,-0.795 -0.477,-0.954Zm124.556,-58.623c0.158,0 0.635,0.159 0.635,0.318c0,0.476 -0.794,0.317 -1.112,0.476l0,-0.159c0,-0.317 0,-0.635 0.477,-0.635Zm-129.481,70.062c0,-0.159 0,-0.794 0.159,-0.794c0.159,0 0.477,0.635 0.477,0.794c-0.159,0.159 -0.477,0.318 -0.636,0.318c-0.158,0 -0.476,0 -0.476,-0.159c0,-0.159 0.476,-0.159 0.476,-0.159Zm134.565,-156.806l0,0.159l0.317,-0.159l0.318,-2.065c-0.318,0.635 -0.635,1.43 -0.635,2.065Zm-141.555,168.245c0.159,0 1.271,0.318 1.271,0.318c0,0.159 -0.794,0.159 -0.794,0.159l0,0.317c-0.318,0 -0.477,-0.635 -0.477,-0.794Zm132.181,-78.959l1.907,0.159c-0.318,0.159 -1.907,0.476 -1.907,-0.159Zm9.532,-91.351l-0.635,0c-0.159,0.476 0,0.953 -0.159,1.271l0.794,-1.271Zm-78.641,66.567c0.318,0.318 0.635,0.635 0.635,1.112c-0.476,0 -0.635,-0.159 -0.635,-0.636l0,-0.476Zm69.109,20.653c0.159,0 0.159,-0.159 0.318,-0.159c0.159,0 0.318,0.159 0.318,0.318c0,0.159 0,0.477 -0.318,0.477c-0.159,0 -0.318,-0.477 -0.318,-0.636Zm-63.231,74.352c0.159,0 0.159,-0.159 0.318,-0.159c0.159,0 0.318,0.159 0.318,0.318c0,0.159 0,0.477 -0.318,0.477c-0.159,0 -0.318,-0.477 -0.318,-0.636Zm-62.913,-1.589c0.159,0 0.159,-0.159 0.318,-0.159c0.159,0 0.318,0.159 0.318,0.318c0,0.159 0,0.477 -0.318,0.477c-0.159,0 -0.318,-0.477 -0.318,-0.636Zm12.71,-24.148c0.159,0 0.159,-0.159 0.318,-0.159c0.158,0 0.317,0.159 0.317,0.318c0,0.159 0,0.476 -0.317,0.476c-0.159,0 -0.318,-0.476 -0.318,-0.635Zm84.361,0c0.158,0 0.158,-0.159 0.317,-0.159c0.159,0 0.318,0.159 0.318,0.318c0,0.159 0,0.476 -0.318,0.476c-0.159,0 -0.317,-0.476 -0.317,-0.635Zm-7.944,5.401l0.159,0c0.318,0 0.477,0 0.477,0.318c0,0.159 0,0.318 -0.159,0.318c-0.318,0 -0.477,-0.318 -0.477,-0.636Zm-70.38,7.309l0.159,0c0.318,0 0.476,0 0.476,0.317c0,0.159 0,0.318 -0.158,0.318c-0.318,0 -0.477,-0.318 -0.477,-0.635Zm20.653,-33.363l1.112,0.158c-0.158,0.159 -0.476,0.318 -0.794,0.318c-0.159,0 -0.318,-0.318 -0.318,-0.476Zm-35.11,51.315l1.112,0.159c-0.159,0.159 -0.477,0.318 -0.795,0.318c-0.158,0 -0.317,-0.318 -0.317,-0.477Zm-19.065,10.327l0.636,-0.954l0,0.795l-0.159,0c-0.477,0 -0.477,0.635 -0.477,0.953l-0.159,0.159l0.159,-0.953Zm142.19,-89.604l1.271,0.159c-0.318,0.159 -1.271,0.477 -1.271,-0.159Zm-109.939,55.923l1.271,0.159c-0.318,0.159 -1.271,0.476 -1.271,-0.159Zm-1.748,-13.345c0,0 0.159,-0.159 0.318,-0.159c0.159,0 0.159,0.159 0.159,0.318c0,0.158 0,0.476 -0.159,0.476c-0.318,0 -0.318,-0.476 -0.318,-0.635Zm120.902,-83.249c0,0 0.158,-0.159 0.317,-0.159c0.159,0 0.159,0.159 0.159,0.318c0,0.159 0,0.477 -0.159,0.477c-0.317,0 -0.317,-0.477 -0.317,-0.636Zm-105.809,74.034c0.318,0 0.636,0.318 0.636,0.636c-0.477,0 -0.636,-0.159 -0.636,-0.636Zm40.036,47.344c0.318,0 0.635,0.318 0.635,0.635c-0.476,0 -0.635,-0.159 -0.635,-0.635Zm-56.4,-35.746l0.636,0.159c0,0.159 0,0.476 -0.318,0.476c-0.159,0 -0.318,-0.476 -0.318,-0.635Zm74.035,10.326l0.635,0.159c0,0.159 0,0.477 -0.318,0.477c-0.159,0 -0.317,-0.477 -0.317,-0.636Zm-32.728,-33.998l0.636,0.159c0,0.159 0,0.476 -0.318,0.476c-0.159,0 -0.318,-0.476 -0.318,-0.635Zm79.595,-59.577l0.635,0.159c0,0.159 0,0.477 -0.318,0.477c-0.158,0 -0.317,-0.477 -0.317,-0.636Zm-34.793,84.996l0.635,0.159c0,0.159 0,0.477 -0.317,0.477c-0.159,0 -0.318,-0.477 -0.318,-0.636Zm-85.473,-2.859c0.159,0 0.318,-0.159 0.318,-0.159c0.159,0 0.317,0.159 0.317,0.318c0,0.158 -0.158,0.317 -0.317,0.317c-0.159,0 -0.318,-0.317 -0.318,-0.476Zm-3.019,6.037c0.159,0 0.318,-0.159 0.318,-0.159c0.159,0 0.318,0.159 0.318,0.318c0,0.159 -0.159,0.317 -0.318,0.317c-0.159,0 -0.318,-0.317 -0.318,-0.476Zm123.92,-89.445l0.636,0.159c0,0.159 0,0.477 -0.318,0.477c-0.159,0 -0.318,-0.477 -0.318,-0.636Zm-93.575,63.231l0.635,0.159c0,0.159 0,0.477 -0.317,0.477c-0.159,0 -0.318,-0.477 -0.318,-0.636Zm47.82,30.98l0.636,0.159c0,0.159 0,0.476 -0.318,0.476c-0.159,0 -0.318,-0.476 -0.318,-0.635Zm-36.858,-33.363l0.635,0.159c0,0.159 0,0.476 -0.317,0.476c-0.159,0 -0.318,-0.476 -0.318,-0.635Zm-56.558,70.38l0.159,0.318l0.158,0.794c-0.635,0 -0.317,-0.635 -0.317,-0.953l0,-0.159Zm107.556,-67.997c0,-0.318 0.159,-0.635 0.476,-0.635c0,0.158 0,0.635 -0.317,0.635l-0.159,0Zm-101.678,43.69l0.477,0.159c0,0.158 0,0.476 -0.159,0.476c-0.318,0 -0.318,-0.476 -0.318,-0.635Zm-10.486,-40.036c-0.158,-0.159 -0.476,-0.477 -0.476,-0.635c0.159,0 0.476,0 0.635,0.158l-0.159,0.477Zm27.167,26.849c0.159,0 0.159,-0.159 0.318,-0.159c0.159,0 0.159,0.159 0.159,0.318c0,0.159 0,0.318 -0.159,0.318c-0.318,0 -0.318,-0.318 -0.318,-0.477Zm-11.597,4.766l0.318,0c0.158,0 0.317,0.159 0.317,0.318c0,0.159 0,0.159 -0.159,0.159c-0.317,0 -0.476,-0.318 -0.476,-0.477Zm-12.233,23.037l0.317,0c0.159,0 0.318,0.159 0.318,0.318c0,0.158 0,0.158 -0.159,0.158c-0.317,0 -0.476,-0.317 -0.476,-0.476Zm83.248,-1.748c0.318,0 0.636,0.159 0.636,0.477l-0.318,0c-0.318,0 -0.318,-0.318 -0.318,-0.477Zm1.748,-11.597c0.318,0 0.635,0.159 0.635,0.476l-0.317,0c-0.318,0 -0.318,-0.317 -0.318,-0.476Zm-18.111,-45.596c0.317,0 0.635,0.158 0.635,0.476l-0.159,0c-0.317,0 -0.476,-0.159 -0.476,-0.476Zm-66.25,70.38l0.636,0c0,0.158 0,0.476 -0.318,0.476l-0.318,-0.476Zm3.178,-19.542l0.635,0.159c0,0.159 -0.159,0.318 -0.318,0.318c-0.158,0 -0.317,-0.318 -0.317,-0.477Zm123.602,-134.405c0.159,-0.159 0.794,-0.318 0.794,0c0,0.159 -0.159,0.159 -0.318,0.159l-0.476,-0.159Zm-117.565,144.732l0.635,0.159c0,0.159 -0.159,0.318 -0.317,0.318c-0.159,0 -0.318,-0.318 -0.318,-0.477Zm-3.337,-15.728l0.636,0.159c0,0.159 -0.159,0.317 -0.318,0.317c-0.159,0 -0.318,-0.317 -0.318,-0.476Zm19.065,-15.57l0.159,0c0.318,0 0.477,0 0.477,0.318l-0.159,0c-0.318,0 -0.477,0 -0.477,-0.318Zm-25.578,28.121l0.159,0c0.317,0 0.476,0 0.476,0.317l-0.159,0c-0.317,0 -0.476,0 -0.476,-0.317Zm12.233,-23.196l0.159,0c0.317,0 0.476,0 0.476,0.318l-0.159,0c-0.317,0 -0.476,0 -0.476,-0.318Zm-6.196,11.757l0.318,0c0,0 0.158,0 0.158,0.159c0,0.159 0,0.317 -0.158,0.317c-0.159,0 -0.318,-0.317 -0.318,-0.476Zm-57.988,-42.895l0,0.158c0,0.159 0.159,0.318 0.318,0.318c0.158,0 0.317,0 0.317,-0.159l-0.635,-0.317Zm48.932,0.158c0,-0.158 0.159,-0.317 0.318,-0.317c0.159,0 0.159,0.159 0.159,0.317l0,0.159c-0.159,0 -0.318,0 -0.477,-0.159Zm-7.785,64.026l0,0.317c0,0.318 -0.158,0.477 -0.476,0.477l0.476,-0.794Zm150.928,-178.731l0,0.636l0.477,0l-0.477,-0.636Zm-129.639,165.544l0.159,0c0.159,0 0.159,0 0.159,0.159c0,0.159 0,0.318 -0.159,0.318c-0.159,0 -0.159,-0.318 -0.159,-0.477Zm-12.074,-51.156l-0.159,0.159l-0.159,0c-0.159,0 -0.317,-0.159 -0.317,-0.318l0.158,0c0.159,0 0.318,0.159 0.477,0.159Zm-7.308,6.672l0.635,0.318c0,0 0,0.159 -0.158,0.159c-0.159,0 -0.318,-0.318 -0.477,-0.477Zm128.686,-84.202c0.159,-0.317 0.635,-0.158 0.635,0l-0.635,0Zm-166.656,75.623c0,0.318 0.476,0.477 0.635,0.477l-0.635,-0.477Zm40.671,7.467l0.476,0.477c-0.158,0 -0.476,-0.159 -0.476,-0.477Zm4.607,-5.56l0.159,-0.159c0.159,0 0.318,0 0.318,0.159l-0.477,0Z" style="fill-rule:nonzero;stroke:#00cae3;stroke-width:2.5px;stroke-linecap:butt;stroke-miterlimit:2;"/><path d="M248.733,136.69c-0.476,-0.318 -1.112,-0.953 -1.112,-1.589c0,-0.318 0.159,-0.635 0.318,-0.794c0.318,0.159 1.589,3.336 1.748,3.495c-0.477,0.476 0,0.953 0.476,1.271c-0.159,-0.636 -0.635,-4.766 -0.635,-5.561l-0.159,0l0.635,-0.953c0,-2.065 -1.588,-3.654 -2.383,-5.402l-1.271,-0.317c-0.318,-0.954 0,-2.383 0.318,-3.337l-0.794,-1.271l-0.477,-0.317l-0.159,-1.271c0,-0.636 -0.794,-0.159 -1.112,-0.159c-0.635,0 -0.318,-2.383 -0.318,-2.86c-0.317,0 -0.794,-0.159 -1.271,-0.159l0.795,-0.317c-0.159,-0.636 -0.795,-1.271 -1.43,-1.271c0,-0.954 -0.636,-1.907 -1.112,-2.542l0.317,-0.636c1.271,0 1.271,0 1.271,-1.271l-1.588,0l0.159,-0.318l-0.477,-1.429c0,-0.159 0.159,-0.954 -0.318,-0.954c-0.794,-0.476 -1.43,-1.271 -1.271,-2.224c-0.794,-1.747 -1.588,-3.495 -2.542,-5.084l0,-0.476c0,-2.542 -1.747,-0.477 -1.747,-4.449c0,-0.317 -1.43,-3.654 -1.748,-3.813l-0.953,-2.383l-1.112,-0.476l0,0.159c0,0.635 0.476,0.794 0.318,1.429l0.953,2.066l-0.318,1.43c0.477,0.476 0.794,1.112 0.953,1.747c0,0.636 -0.317,2.224 -1.112,2.065c0,-0.158 -0.159,-0.635 -0.318,-0.635c-0.158,0 -0.317,0.794 -0.317,0.953l0.317,1.589c-0.158,0.477 -0.476,1.271 -0.953,1.43c-0.476,-0.159 -1.112,-0.318 -1.589,-0.636l0.159,-0.635c0,-1.112 -1.112,0.159 -1.112,-2.542c0,-0.159 0,-0.477 -0.317,-0.477l-0.318,-1.43l-1.43,-1.271l-0.318,0c-1.112,-0.317 -0.159,-0.476 -0.159,-1.112l-0.159,-0.317l-0.635,-2.225l-0.953,-1.271l0.317,-2.065c-0.317,-0.318 -0.635,-0.794 -1.112,-0.794c-0.476,0 -0.476,0.953 -0.476,1.271c0,0.635 0.318,6.513 0.794,6.672l-0.476,2.224c0.794,0.159 0.953,0.795 0.476,1.43c0.477,0.159 0.318,0.795 0.159,1.112l1.112,0.477c-0.159,0.794 -0.159,1.907 -1.112,2.065l-0.318,0c0,0 -0.317,-0.158 -0.317,0c0,0.318 0.476,0.477 0.635,0.636c0.635,2.065 1.112,4.289 1.112,6.514c0,0.158 0,0.317 -0.318,0.317c-1.271,0 -1.588,-5.084 -1.588,-5.878c-0.795,-0.159 -0.795,-1.906 -0.636,-2.542l-0.476,-0.635l0.158,-0.636l-0.317,-1.112l-0.477,-0.635l0.159,-0.795l-1.112,-0.635l-0.636,0.159c-0.317,0 -0.794,-0.159 -0.635,-0.636c0.318,0 0.635,0.159 0.635,-0.159c0,-0.317 -0.317,-0.794 -0.476,-0.953c-0.159,0.159 -0.318,0.318 -0.477,0.318c-0.477,0 -0.635,-1.907 -1.589,-2.066l-0.953,-2.7c-0.159,-0.159 -2.224,-2.225 -0.953,-2.066l0,-0.159c0,-1.112 -1.748,-1.112 -1.43,-2.542c-0.477,-1.906 -1.43,-2.859 -1.43,-4.289c0,-0.636 -0.476,-0.794 -0.317,-1.43l-0.636,-2.542l0,-0.318c0,-0.635 -0.635,-0.158 -0.318,-0.953l-0.476,-0.794l0,-0.953c0,-0.954 -0.318,-1.907 -1.271,-2.066c0,-0.317 0,-1.112 -0.318,-1.271c-0.318,0.477 -0.318,0.954 -0.477,1.43c0.477,0.795 0.795,1.748 0.795,2.701c0,1.906 0.794,3.654 0.794,5.56c0,1.113 -0.159,2.225 0.477,3.019c0,0.636 0,1.43 0.317,1.906c0.954,2.225 1.113,4.767 1.113,7.15c0,3.018 0.953,6.037 0.953,9.214l0.794,1.43l0,0.159c0,0.794 0.794,1.906 0.794,2.86c0,0.317 0.159,0.635 0.477,0.635c0.318,1.589 0.794,3.178 1.43,4.766l-1.43,0.795l0,0.317c0,0.477 0.477,0.318 0.318,1.112c0.318,0 1.112,0 1.112,0.477l-0.159,0.953l-0.794,0c0,0.318 0.476,0.477 0.635,0.636l0.795,2.542l0,0.476c0,0.477 1.429,5.084 1.429,5.084l-0.317,0.636l-0.795,0.476c-0.953,0 -0.635,0.954 -0.635,1.589l-0.636,1.112c-0.476,0.318 -0.635,1.112 -0.635,1.589c-0.636,0 -0.477,0.476 -0.477,0.953c0,0.318 -0.318,0.318 -0.635,0.318l-0.954,1.112c-0.158,0.159 -0.476,1.271 -0.794,1.271c-0.159,0 -0.159,-0.318 -0.159,-0.318c0,-1.271 1.271,-2.065 1.271,-3.336c0.318,-0.318 0.477,-0.636 0.477,-1.112c0,-0.159 -0.159,-0.159 -0.318,-0.159c-0.318,-0.159 -0.635,-0.636 -1.112,-0.636c-0.794,0 0.159,3.813 -1.589,3.813c0,1.43 -0.635,2.542 -0.635,3.972l-0.159,0c-0.318,0 -0.318,0.794 -0.318,0.953l-0.794,0.477c-0.953,2.542 -2.383,4.766 -4.131,6.831c-0.318,0.159 -1.112,2.542 -1.112,3.019l-0.794,1.112c-0.477,0 -0.477,0.318 -0.477,0.794c0,0.318 -0.318,0.477 -0.635,0.477c0,0.477 -2.542,5.402 -3.019,5.402c-0.477,0.794 -1.112,1.588 -1.43,2.383c-0.794,1.747 -2.224,3.495 -2.224,5.56l-1.589,3.019c-1.271,0 -0.794,2.383 -2.065,2.383c0,1.271 -2.86,8.42 -3.972,8.42c-0.476,1.271 -1.271,3.495 -2.542,4.29c-0.318,1.112 -0.794,2.065 -1.43,3.018l-0.953,0.795c0,1.112 -0.476,3.495 -1.43,3.495c-0.635,0 -0.794,1.43 -0.953,1.906c-0.318,1.112 -1.271,2.542 -1.271,3.495c-1.112,0 -1.271,2.066 -1.271,2.86l-1.271,1.112c0,0.477 0,1.112 -0.476,1.43c0,0.794 0,3.813 -1.271,3.813l0,1.589c-0.795,0.476 -1.271,0.953 -1.271,1.906c-0.636,0.636 -1.271,1.43 -1.748,2.224c0,0.953 -0.635,1.589 -0.635,2.701c0,0.636 -0.318,0.636 -0.795,0.636c-1.906,0 -1.43,6.037 -2.701,6.037c-0.953,2.859 -1.906,5.719 -3.177,8.579c0,0.953 -0.636,1.588 -0.636,2.542l-0.635,1.271l0,0.794c0,0.953 0,2.701 -1.271,2.701l-1.112,3.018c0,1.43 -1.271,2.225 -1.271,3.654c0,0.159 0,0.477 0.318,0.477c0.635,0 3.177,-3.654 3.971,-4.131c0,-0.635 0.159,-1.271 0.636,-1.747c0.318,-1.112 0.635,-2.383 0.635,-3.495l2.066,-0.795c0.794,0 1.112,0.636 1.906,0.636c-0.318,0.794 -0.953,3.336 -0.953,4.289c-1.112,0 -3.177,10.168 -3.336,10.327l-0.954,1.271c0,0.794 0.159,1.112 0.954,1.112c1.43,0 1.43,-1.271 1.43,-2.383l2.541,-2.065l-0.158,-1.748c0,-0.635 0.794,-1.112 1.271,-1.112c0,-1.112 3.654,-2.701 3.654,-4.29c0.476,-0.317 0,-1.747 0.635,-1.747c0.953,0 0.159,4.13 1.271,4.13c0.794,-1.429 2.383,-2.541 3.019,-4.13c0,1.112 -0.636,2.065 -1.112,3.018c0.158,0.318 0.476,1.907 0.794,1.907c0.318,-0.318 0.318,-0.953 0.318,-1.43c1.112,0 1.429,-1.589 1.429,-2.383l0.477,0c0.477,0 0.477,-0.318 0.477,-0.794c0.317,-0.954 1.112,-1.748 1.906,-2.225l1.43,-3.018c0.159,0.159 0.477,0.635 0.635,0.635c0.477,0 0.159,-1.588 0.954,-1.906l0.635,0l0,-0.159l-0.159,-0.159l0.477,-1.43l0.635,-0.794l0.636,-0.318l-0.953,1.748l-0.159,6.037l-0.159,0c-0.794,1.271 -1.907,4.13 -1.907,5.56c0.954,0 2.225,-2.383 2.542,-3.177c0,-0.477 0.159,-1.271 0.636,-1.589c0.635,-0.635 1.271,-1.747 1.271,-2.701c0.477,-0.476 0.635,-1.112 0.635,-1.747c0.636,0 0.477,-0.477 0.477,-0.953c0,-0.318 0.318,-0.318 0.635,-0.318c0.636,-1.112 1.271,-4.29 2.542,-4.29l1.113,1.112l-0.795,0.795l-0.318,1.747l1.748,-0.794c0,-0.477 0.159,-1.112 0.635,-1.271c0.318,-0.477 0.477,-1.112 0.477,-1.589c0.794,0 0.794,-0.953 0.636,-1.43l0.953,-1.429c1.43,0 0.953,-0.954 0.953,-2.225l0.636,-0.635c0,-1.112 1.112,-1.748 1.747,-2.383c0,-0.477 0.159,-1.112 0.636,-1.43c0,-1.43 0,-3.654 1.906,-3.654c0,-1.112 0.636,-1.907 0.636,-3.336l0.476,-0.318c0.477,-0.794 0,-3.178 1.43,-3.178c1.112,0 0.953,-0.158 0.953,-1.112c0,-0.635 0.636,-0.635 0.636,-1.271l0.635,-0.476l0.318,-1.271l0.953,-0.953l0,-2.701c1.43,0 0.953,0 0.953,0.794c0,0.318 0.477,0.477 0.636,0.477c1.747,0 3.813,-10.327 6.037,-10.327c0.159,-0.794 0.953,-3.018 1.906,-3.018c0,-1.271 2.066,-6.673 3.019,-6.355l0,-1.748c0.318,-1.112 0.794,-2.542 1.748,-3.495c0,-0.318 0,-0.953 -0.477,-0.953l0.477,-0.636l2.065,-0.159c0.794,0 0.159,0.954 -0.159,1.271l0,1.907c0,2.065 1.43,4.13 1.43,6.196c0,0.953 0.794,1.906 1.271,2.701c0,0.635 2.065,6.831 2.383,7.149c0,1.588 1.43,2.859 2.383,3.813c0.794,0 0.159,-0.954 0,-1.271c0,-0.318 0,-1.112 0.477,-1.112c0.635,0 1.429,1.747 1.429,2.383c0.159,0.159 1.113,2.065 1.113,0.794l1.271,1.43l-3.019,-1.589c0,0 0,-0.635 -0.159,-0.635c-0.159,0 -0.476,1.112 -0.476,1.271l1.27,0.953c0.954,0.318 2.384,0.953 2.384,2.065c0,0 4.766,1.748 5.401,1.748c0.318,0 0.636,-0.159 0.636,-0.636c1.112,0 1.747,-1.112 2.859,-1.112l0.159,1.112l-1.112,0l-0.159,0.318c0,0.318 0.953,0.318 1.112,0.318c1.271,0 2.066,-0.636 3.337,-0.636c0,-1.747 3.018,-0.476 3.018,-1.588l1.43,-0.795l0.953,-1.112l2.701,-1.271c0.953,0 0.953,-1.906 2.383,-1.906c0.159,-0.477 0.795,-0.636 1.271,-0.636c0.318,-0.476 8.738,-7.784 9.374,-7.784c1.271,0 0.158,-1.271 1.112,-1.271l0.794,-1.271c0.794,0 1.112,0.635 1.906,0.635l2.225,-2.383c0,-1.43 2.542,-1.589 2.542,-2.86l2.383,-2.065c0,-0.318 0,-1.271 0.476,-1.271l1.112,1.271c-0.317,0.635 -0.953,1.271 -1.588,1.271l-1.271,1.112c-0.795,0 -0.477,0.636 -1.271,0.636c-1.271,1.906 -3.019,3.971 -4.608,5.56l1.113,0.477c0,-0.636 0.476,-1.112 1.112,-1.43l0,-0.318c0.159,0 0.635,1.271 0.635,1.43c0,0.477 -0.318,0.318 -0.794,0.318c-0.159,0 -0.318,0.159 -0.318,0.476c-1.43,0 0.318,3.495 -1.748,2.86c-0.953,0.635 -0.635,2.542 -0.635,3.495c-0.477,0.477 -1.271,0.794 -1.906,1.112c0,2.701 -3.655,8.738 -3.655,9.056c-0.317,0.318 -1.429,1.271 -0.317,1.271l-0.318,1.271c-1.589,0 -0.635,6.672 -2.383,6.672c-0.318,0.795 -0.794,4.29 -1.907,4.29c-1.112,0 -2.541,8.738 -5.401,10.486c0,0.953 0.476,1.588 0.635,2.541l-0.476,0.954c-0.159,0.159 -1.112,1.112 -0.318,1.112c0.318,0 0.159,0.635 0.159,0.794l-0.477,0.159c-1.112,1.43 -1.271,3.495 -1.906,5.084c0,0.477 0,0.953 -0.159,1.271l-1.112,0.159c-0.636,1.906 -0.953,3.813 -1.589,5.719l-0.477,-0.159c-0.635,0 -0.953,1.112 -0.953,1.748c-0.635,0.953 -0.953,2.224 -1.112,3.336c-0.476,0.318 -1.43,3.178 -1.747,3.813l-0.795,0.636c0,0.635 0.159,1.429 0.636,1.906c-0.636,0.794 -0.954,2.701 -1.589,3.813c0,0.477 -0.636,3.813 -1.43,3.654c-0.953,3.018 -1.271,6.037 -3.336,8.738l0.159,1.906c0,0.477 -0.159,0.795 -0.159,1.271c-0.159,0.477 -0.477,1.112 -0.953,1.589c-0.159,0.794 -0.477,1.748 -0.318,2.542l-0.795,0.159c-0.158,0.635 -0.317,1.43 0,2.065c-0.476,1.271 -0.794,2.701 -1.27,4.131c0.317,0 0.635,0 0.635,0.318c0,0.635 -0.318,1.112 -0.318,1.588c-0.317,0.318 -0.317,0.954 -0.317,1.43l-0.477,0.794c0,0.795 -0.318,1.589 -0.318,2.384l-0.476,0.476c0,1.271 -0.318,2.542 -0.159,3.813c0.317,-0.318 6.831,-13.822 6.831,-14.934l0.795,0.477c0,0.318 0,0.953 -0.318,1.112l-0.795,2.065l-0.635,0.795l0.635,1.429l1.113,-2.7c0,-0.954 0.317,-1.907 0.317,-2.86l0.636,-0.794l0,-0.954l0.635,-0.953c-0.159,-0.953 0.318,-2.065 0.636,-3.018l0.635,-0.795l0.795,-0.476c0.317,-0.795 0.794,-1.748 0.953,-2.542l0.476,0.953c-0.476,0.953 -0.953,2.065 -1.271,3.177l0.954,1.43l-0.477,1.907l-0.953,0.953l0.794,1.589l0.636,-0.477c0,-0.159 0.159,-0.636 0.317,-0.636l0,0.318l0.636,0.477c0,0 0,0.318 0.159,0.318c0.794,0 0.953,-1.43 1.43,-2.066l-0.318,-0.794l0.476,-0.795l0.159,0c0.318,0 0.477,-0.476 0.477,-0.794l0.953,-2.065c0,0 0,-0.953 0.159,-0.953c0.159,-0.318 0.318,-0.954 0.636,-0.954c0.158,0 0.158,0.477 0.158,0.477c0.636,0.318 0.954,0.953 0.954,1.589l0.953,0l0.794,-0.795l0.159,-1.112l0.318,-0.159l0.159,0.795c0,0.635 -0.159,1.271 -0.477,1.747l0,0.636l-0.794,2.065l0.635,1.112c0.159,-2.065 1.907,-5.719 2.701,-7.626c0.159,-0.635 2.065,-4.448 2.065,-2.542l1.43,-1.112c0.636,-3.336 1.748,-6.513 3.178,-9.691l0.317,0.636c-0.476,0.476 -0.953,2.224 -1.112,2.859l0.636,1.589c1.112,0 0.318,-2.542 1.112,-3.336c0,-0.318 2.065,-4.608 2.224,-5.879l0.477,0l1.112,-1.112l0.159,-1.429c0.159,-0.159 0.317,-0.477 0.476,-0.477c0.159,0 0.159,0.159 0.159,0.318c0.159,0.159 0.636,0.317 0.636,0.635c0,0.159 -0.159,0.159 -0.318,0.159c-0.477,2.065 -0.953,3.813 -1.748,5.878l0.636,1.748l0,-0.318c0,-0.318 0,-0.953 0.318,-1.271l0.953,-2.065c0,-0.159 1.43,-2.066 1.747,-3.495c0.795,0 0.954,-2.383 0.954,-3.019l0.953,-2.065c0.159,-0.477 1.906,-2.542 1.906,-0.953c0.953,0 1.112,-1.43 2.066,-1.43c1.271,-4.766 4.289,-9.691 5.401,-14.299l0,0.477c0,0.476 -0.318,1.112 -0.476,1.43c0.476,0.476 -1.112,3.654 -1.271,4.289c0,0.318 0.476,1.907 0.635,1.907c0.318,0 -0.476,-1.112 0.477,-1.748c0.317,-0.794 0.635,-1.747 1.271,-2.383c0,-1.43 1.43,-0.794 2.065,-4.448c0.477,0 1.748,-4.766 2.065,-5.561c0.477,-0.953 2.542,-3.018 2.542,-1.906c1.271,0 1.271,-1.748 2.542,-1.748c1.271,-3.177 2.224,-6.514 3.178,-9.691c0.635,0 2.859,-6.037 2.859,-6.196l0.954,-1.748l0.794,-1.271l0.159,-1.747l0.476,-0.477c0,-0.635 0.636,-0.953 0.636,-1.589l0.635,0.159l0.318,1.271l1.112,-0.476c0.953,-2.86 2.542,-5.243 3.972,-7.785c0,-0.635 0.636,-0.953 0.636,-1.589l1.112,-2.859c0,-0.636 0.159,-1.112 0.635,-1.589c0,-0.477 0.159,-1.112 0.636,-1.271l0.635,-1.271c0,-0.636 0.636,-0.953 0.636,-1.589c0,0 1.271,-2.701 1.271,-2.859c0.317,-0.318 0.476,-1.113 0.476,-1.589c0,-0.636 0.636,-0.953 0.636,-1.589c0.476,-0.476 0.635,-0.953 0.635,-1.589c0.636,0 0.636,-0.317 0.636,-0.794c0,-0.318 0.158,-0.477 0.476,-0.477l1.112,-3.654l0.795,-4.607c0.159,-0.794 0,-3.336 1.271,-3.336c0,-1.43 0.476,-2.701 0.476,-3.972c0,0 0,-0.318 -0.159,-0.318c-0.158,0 -0.635,1.112 -0.794,1.271c-1.112,0 -2.542,2.86 -2.542,3.972l-1.271,0.953c0,0.636 -0.159,1.271 -0.635,1.748c0,0.794 -0.636,0.794 -0.636,1.747c-0.476,2.066 -2.383,3.813 -2.383,5.879l-1.271,0.317l0,-1.429c-0.318,-0.318 -0.635,-0.795 -0.635,-1.271c0,-0.318 0.317,-0.318 0.476,-0.318c-0.159,-0.636 0,-1.271 0.795,-1.271c0,-0.477 0.158,-1.271 0.635,-1.589c0,-0.635 0.159,-1.271 0.636,-1.747c0,-1.271 1.271,-1.907 1.271,-3.178c0.635,-0.794 1.429,-1.747 1.747,-2.701c0.477,-0.317 0.636,-1.112 0.636,-1.588l1.271,-0.795c0,-0.476 0.158,-1.271 0.635,-1.588l0.477,-0.795c0,-0.476 0.159,-0.794 0.635,-0.476c0,-0.159 0.159,-0.795 0.477,-0.795c0.318,0 0.476,0.477 0.635,0.795c0.159,-0.318 0,-0.636 0,-0.954c0,-0.317 0.477,-0.317 0.636,-0.317c0,-1.43 1.271,-2.225 1.271,-3.496c0.159,-0.158 1.271,-2.065 1.588,-2.065c0.318,0 0.318,0.477 0.318,0.636c0.318,0 0.477,0.158 0.477,0.317c0,0.795 -0.636,1.43 -1.112,1.907c0,1.271 -1.271,2.065 -1.271,3.336c-0.636,0 -0.636,0.318 -0.636,0.636c0,0.476 -0.317,0.476 -0.635,0.476l-0.477,1.748l1.907,0c0.953,0 1.112,0.159 1.112,-0.953l0.635,-0.477l0.636,-1.43c0.476,0 0.476,-0.318 0.476,-0.794c0,-0.318 0.318,-0.477 0.636,-0.477c0,-1.43 1.271,-2.224 1.271,-3.495l0.635,-0.636c0,-0.317 0.159,-1.112 0.636,-0.794l0.476,-1.43c0.477,-0.476 0.636,-0.953 0.636,-1.588l1.112,-1.748c0,-1.112 1.271,-1.748 1.271,-3.019l1.906,-2.542c0,-1.27 1.112,-2.065 1.112,-3.177l1.113,-1.589l0,-0.317c0,-0.636 0.317,-0.954 0.794,-0.954c0,-1.429 1.271,-2.065 1.271,-3.336l0.635,-1.43c0,-0.635 0.477,-0.635 0.477,-1.271l0.635,-0.476l0,-1.112l-1.588,-0.954l-0.795,1.271c0,0 -2.542,-3.018 -2.542,-1.271c-0.317,-0.159 -0.635,-0.635 -0.635,-0.953c0,-0.318 0.477,-0.318 0.635,-0.318c0.318,-0.635 0.636,-1.271 0.636,-2.065c0,-0.477 -0.318,-0.794 -0.794,-0.794c-0.159,-0.954 -0.795,-2.542 -1.907,-2.542c-0.476,-0.477 -0.953,-0.636 -1.589,-0.636l0,-2.065c-0.476,-0.318 -1.588,-1.43 -2.065,-1.43c-0.477,0 -0.318,3.019 -1.906,3.019c-0.159,0 -0.159,-0.318 -0.159,-0.477c0.635,-0.159 1.271,-0.794 1.271,-1.43l0.476,-1.271c0,-1.43 1.271,-2.383 1.271,-3.813c0,-0.317 0,-0.953 0.477,-1.112c0,-0.476 0,-1.112 -0.477,-1.43l-1.112,0.954l-0.159,1.588l-0.953,1.43c-0.159,-1.747 -1.43,-3.654 -1.43,-3.654c-0.476,0 -1.271,-0.159 -1.588,-0.635l-3.337,0.953c0,0.953 -2.383,0.794 -2.383,1.906l-0.794,1.43c-0.477,0 -1.112,0.159 -1.271,0.636l-1.589,0.953c0,0.476 -0.159,1.112 -0.635,1.271l-1.112,1.43l-1.271,0.476c-0.795,0.795 -1.43,1.589 -1.907,2.542c-1.43,0 -0.953,2.383 -2.383,2.383l-1.112,1.112l-1.271,0.318c0,1.112 -0.953,0.477 -1.271,0c-1.112,0.794 -1.748,2.383 -2.383,3.495c0,1.589 -1.589,1.112 -2.542,0.954l-2.224,3.177c0,0.794 -1.748,1.748 -2.383,2.065c-0.795,0.636 -1.43,1.589 -1.748,2.542c-0.794,0 -2.542,0.318 -2.542,1.43l-1.906,2.701c-0.795,0 -1.589,0.476 -2.066,0.953l-0.317,0c-0.636,0 -0.954,0.318 -0.954,0.794l-0.953,1.271c-0.476,0 -0.953,0.159 -1.112,0.636l-1.43,0.635c-0.159,0.477 -0.635,0.636 -1.112,0.636l-0.159,1.747l-3.813,1.907c-1.112,0 -1.112,1.748 -2.542,1.748c-0.158,0.476 -0.794,0.635 -1.271,0.635l-0.794,1.112c-1.589,0.318 -3.813,1.589 -4.925,2.86l-0.318,0c-1.747,0 0.318,1.43 -2.383,1.43c-0.317,0 -0.476,0.159 -0.476,0.476l-1.112,1.271l-1.748,0.477c0,1.112 -0.636,0.953 -1.43,0.953c-0.159,0 -0.476,0 -0.476,0.318l-1.271,0.953c0,0.794 -0.795,0.953 -1.43,0.953l-0.795,0l0.795,-0.476c0.953,0.159 0.794,0 0.953,-0.795c-0.953,-0.476 -1.748,-1.588 -2.065,-2.542c-1.907,-0.476 0.476,-3.177 -2.383,-2.542l-0.318,-1.271c0.159,-0.158 0.635,-0.317 0.635,-0.635c0,-0.159 -0.159,-0.318 -0.317,-0.318c0.158,-1.43 -0.159,-3.018 -0.636,-4.289c-0.159,0.159 -0.635,0.635 -0.953,0.635c-0.159,0 0,-0.476 0,-0.476l-0.318,-1.589c0.159,-0.477 0.159,-1.271 -0.318,-1.589l-0.159,-1.747c-0.635,-0.636 -1.112,-1.271 -0.953,-2.225c-0.476,-0.635 -0.953,-1.747 -0.794,-2.542c-0.477,-0.158 -0.318,-0.794 -0.159,-1.112l-0.794,-1.112l-0.159,0c-0.636,0 -0.636,0.953 -0.636,1.43l0,0.477c0.477,0.317 0.636,0.953 0.477,1.429c0.318,0.318 0.318,0.954 0.318,1.271l0.317,0.954l-0.953,-0.159l-0.318,0.159c-0.635,0 -1.112,-2.066 -1.112,-2.542Zm-46.708,63.707c0.477,0.477 1.43,1.112 1.43,1.907c0,0.317 -0.636,0.317 -0.794,0.317c0,1.271 0,1.271 1.271,1.271c0,-0.476 0.158,-1.112 0.476,-1.588c0,0 0,-0.318 0.159,-0.318c0,0 0.477,0.953 0.477,1.112c-0.636,0.953 -1.589,1.748 -2.383,2.542c-0.159,0.477 -1.748,4.448 -1.907,4.607l-0.318,1.589c-0.953,0 -0.794,0.477 -0.794,1.112c0,0.477 -0.159,0.636 -0.635,0.636l0.635,1.747l-1.271,1.112l-1.271,2.542c0,-0.318 0,-1.112 -0.477,-1.112c-0.476,0 0.318,1.748 -0.635,1.748l-0.636,0l-0.635,-1.748l1.112,-1.43c0,-1.112 0.636,-0.159 0.953,0.159l0,-0.477c0,-0.476 0.318,-0.794 0.795,-0.794l-0.477,-1.747l1.271,-0.954l0,-2.065c1.112,0 1.271,-0.159 1.271,-1.271c0.636,-1.112 1.748,-3.177 1.748,-4.607l0.635,-0.477l-0.635,-0.635c0,-1.112 0.635,-2.066 0.635,-3.178Zm107.079,-17.158c0,-1.112 0.636,-2.065 0.636,-3.177c0,-0.159 0,-0.477 0.159,-0.477c0.318,0 0.635,0.477 0.794,0.636l-0.476,0.953c0,1.112 -1.113,1.906 -1.113,3.018c0,0.318 0,1.43 0.477,1.43l0.636,-1.271c0.476,-0.318 0.635,-0.953 0.635,-1.43l0.636,-0.476l0,-1.112c0.158,0.317 0.635,0.794 0.953,0.794c0.159,0 0.159,-0.159 0.159,-0.318c0.159,-0.159 0.317,-0.794 0.476,-0.794c0.159,0 0.159,0.318 0.159,0.318c0,1.112 -0.635,1.906 -0.635,3.018c-0.318,0.318 -0.477,0.953 -0.477,1.43c-0.794,0 -0.635,0.636 -0.635,1.112l-1.271,2.86l-2.384,5.243l-1.27,0.953c0,-0.318 0.158,-0.953 0.635,-0.795l-0.635,-0.635c0,-0.953 0.317,-1.112 0.794,-0.318l0.476,-2.065c0.954,-0.636 0.954,-3.654 1.907,-4.29l-0.159,0c-0.794,0 -1.112,-0.635 -1.112,-1.429c0.159,0 0.635,-0.318 0.635,-0.477c0,-0.159 -0.635,-0.159 -0.794,-0.159c-0.159,-0.318 -0.477,-0.953 -0.477,-1.43c0,-1.112 0.318,-1.112 1.271,-1.112Zm-58.941,-32.251l1.589,-0.159c0.318,0.318 0.635,0.795 0.476,1.271l1.113,1.589l1.429,0c0.159,0.159 0.477,0.477 0.636,0.477l0,-0.159c0,0.159 0,0.159 0.159,0.159c0.476,-0.159 0.953,-1.271 1.43,-1.271c0,0.476 -0.636,1.429 -0.954,1.906c0.159,0.159 0.159,0.318 0.159,0.636c0,0.158 0,0.158 -0.159,0.317c0.159,0.318 0.159,0.636 0.159,1.112c-0.159,-0.317 -0.317,-0.476 -0.635,-0.476l0,-0.477c-0.159,0 -0.318,0 -0.318,-0.159c-0.159,0.159 -0.318,0.318 -0.318,0.636c0,0.476 0.795,0.953 1.112,1.271c-0.158,0.159 -0.476,0.635 -0.794,0.635c-0.318,0 -0.794,-0.476 -0.953,-0.635c-0.159,-0.477 -3.019,-3.813 -2.542,-4.131c-0.794,-0.794 -0.794,-1.747 -1.589,-2.542Zm83.725,-22.401c0.318,0.159 1.907,0.795 1.907,0.954c0,0.158 -0.318,0.158 -0.318,0.158c-1.112,2.066 -2.383,3.813 -3.972,5.561c0,0.794 -0.476,1.112 -0.476,1.747c-1.112,0 -0.477,0.954 0,1.271l-1.907,1.271c0,1.113 0,1.113 -1.112,1.113l1.112,-3.019c0,-0.794 0.636,-1.112 0.636,-1.906c0.635,0 0.635,-0.318 0.635,-0.795c0,-0.318 0.159,-0.318 0.318,-0.318c1.112,0 0.635,-2.383 2.065,-2.383c0.318,-0.476 0.477,-1.271 0.477,-1.906c1.112,0 0.635,-1.112 0.635,-1.748Zm-124.555,63.231l0.477,-0.159c0.476,0 0.635,0.318 0.635,0.636c0,0.635 -0.317,0.635 -0.794,0.635c-0.318,0 -0.953,2.701 -1.589,2.86c0,0.953 -0.635,1.906 -1.112,2.542l0,0.318c0,0.635 -0.318,0.953 -0.794,0.953c-0.159,0.318 -1.43,1.906 -2.066,1.906c-0.158,0 -0.158,-0.317 -0.158,-0.476c0,-0.795 0.476,-2.066 1.271,-2.066c0.317,0 0.476,-0.159 0.476,-0.476c0.794,-2.224 1.907,-4.925 3.654,-6.673Zm23.195,-79.753l1.907,-0.159c0.476,0.318 0.635,0.635 0.635,1.271c0,0.635 0.954,1.271 1.271,1.747l0,0.795l-0.476,0.953l-0.954,-0.636l0,-0.317c0,0 0,-0.318 -0.158,-0.318c-0.636,0 -0.954,0.953 -1.43,0.953c-0.318,0 -0.318,-1.112 -0.318,-1.43l-0.635,-1.588l0.317,0c0.954,0 0.159,-0.954 -0.159,-1.271Zm-10.008,57.193c0.158,0 0.158,0.477 0.158,0.477l0.318,1.43c-0.953,0 -3.495,5.401 -3.654,5.56l-0.477,-0.159l0,-1.429c0,-0.954 1.113,-1.271 1.113,-2.225l1.271,-1.747c0.794,0 0.476,-1.907 1.271,-1.907Zm62.754,29.392l1.271,0.317c0,0.318 -0.159,0.954 -0.636,0.954c-0.635,0.317 -1.112,0.953 -1.112,1.747l-1.271,1.748l0,1.271l-0.635,0.794l-1.112,0.159c0.794,-0.318 0.476,-1.907 0.476,-2.542c0.795,-0.477 1.589,-2.065 1.907,-2.86c0.953,0 1.112,-0.794 1.112,-1.588Zm-49.25,-90.557c0,-0.159 0,-0.159 0.158,-0.318l0.795,-0.159l0.159,1.112c0.794,0.795 1.112,1.748 1.747,2.542l0,0.318c0,0.318 0.159,0.636 0.477,0.794c-0.159,0.477 1.589,3.019 1.747,3.496c-0.158,0.158 -0.476,0.476 -0.794,0.476c-0.159,0 -0.794,-1.43 -0.953,-1.589c-0.318,-0.476 -1.589,-1.906 -0.953,-2.541l-0.477,-2.066c-0.477,-0.318 -1.906,-1.43 -1.906,-2.065Zm65.772,87.379c0.318,-0.635 0.636,-1.112 1.112,-1.589l1.907,0.318c-1.43,1.43 -2.86,3.178 -3.813,4.925l-0.477,-1.906l1.271,-1.589l-0.635,-0.477l0.635,0.318Zm-49.568,-47.82l1.43,0.476c0.477,0.477 -0.476,0.795 -0.476,1.271c0,0.636 0.953,0.636 1.271,0.636c0.317,0 0.476,0.159 0.635,0.318l-0.318,1.43c0.159,0.158 0.318,0.317 0,0.317l-0.158,0l0.794,1.748c-0.794,-0.477 -1.43,-1.112 -2.065,-1.589l-0.318,-0.635c0,-0.159 0.159,-0.318 0.318,-0.477c0,-0.159 0,-0.318 0.158,-0.635l-1.271,-0.954l0.795,-1.112l-0.795,-0.794Zm-15.569,-25.42l1.748,-0.476l1.429,0.635c-0.158,0.159 -0.317,0.477 -0.317,0.636c0,0.953 0.953,1.589 1.43,2.065c-0.159,0.318 -0.636,0.477 -0.954,0.477c-0.476,0 -1.429,-0.953 -1.747,-1.271l-0.159,-1.748l-0.318,0c-0.318,0 -0.794,-0.159 -1.112,-0.318Zm9.056,15.093c0.476,-0.159 0.953,-0.318 1.43,-0.318c0.317,0 0.317,0.318 0,0.477l1.271,2.383l-1.113,0.953c-0.317,-0.317 -0.794,-0.953 -0.476,-1.429c-0.477,-0.477 -0.953,-1.271 -1.112,-2.066Zm59.735,62.913c-0.476,0.954 -1.588,2.86 -1.588,3.972c0,0.159 0,0.318 0.159,0.318c1.112,0 1.429,-1.112 1.429,-2.065c0.477,0 0.636,-0.636 0.636,-0.954c0,-0.794 -0.636,-0.476 -0.636,-1.271Zm-1.429,-13.98c-0.318,0 -1.113,0 -1.113,-0.636c0.477,-0.794 1.113,-2.701 2.384,-3.018l0,1.271l-1.271,2.383Zm23.83,-43.69c0.636,0.318 1.271,0.953 1.271,1.589c0,1.112 -1.271,0.953 -1.271,1.906l-1.112,-0.476c0,-0.318 0,-0.954 0.477,-0.954l0.635,-0.953l0,-1.112Zm-77.847,0.635l0.477,0c0.477,0 0.794,0.318 0.794,0.795l0,0.476c0.318,0.318 0.795,0.954 0.795,1.43c0,0.159 -0.159,0.159 -0.159,0.159l-0.636,-0.159l0,0.795l-0.476,-0.159c-0.159,-0.636 -0.795,-2.542 -0.795,-2.86l0,-0.477Zm-25.101,-39.876c0.317,-0.318 0.794,-0.795 1.271,-0.795c0.317,0 0.158,1.112 0.158,1.271c0,0.636 0.159,1.112 0.795,1.271c-0.159,0.477 -0.636,1.589 -1.271,1.589c-0.318,0 0,-1.748 0,-1.906l-0.318,-0.795l-0.635,-0.635Zm16.999,9.85c0.159,0.159 0.159,0.159 0.476,0.159l0.795,1.747l1.271,0l0,-0.159c0,-0.317 0.476,-0.476 0.794,-0.476c0,-0.636 -0.318,-1.112 -0.953,-1.112l-1.748,0c0,0 0.159,0 0.159,-0.159c0,-0.159 0,-0.159 -0.159,-0.318l-0.635,0.318Zm28.12,116.77l0.953,-1.906l0.954,-0.636l-1.271,2.701c0.158,0.159 -0.159,0.477 -0.318,0.636l0,0.794l-0.636,1.112l-0.794,0c0.635,-0.159 0.477,-1.43 0.477,-1.906l0.158,0c0,-0.159 -0.158,-0.954 0.477,-0.795Zm-51.792,-51.474l0.794,-0.159c0.477,0 0.954,0.159 0.954,0.636c0,0.953 -1.113,0.953 -1.113,1.747c0,0 0,0.794 -0.158,0.794c-0.159,0 -0.636,-1.112 -0.636,-1.27l0.159,-1.748Zm92.94,-13.028c0.159,0 0.159,0.159 0.159,0.318c0,0.477 -0.318,1.112 -0.477,1.748c-0.477,0.318 -0.635,1.112 -0.635,1.589l-0.477,-0.636l0,-1.112c0.159,-0.318 1.112,-1.907 1.43,-1.907Zm-3.972,11.916c0.318,0.318 0.794,0.794 0.794,1.112c0,0.477 -0.317,0.477 -0.635,0.477l-0.794,2.383l-0.477,-0.954l0.477,-0.794c0,-0.794 0.635,-1.43 0.635,-2.224Zm-126.303,50.839l1.43,0.317c0,0.159 -0.635,0.159 -0.635,0.159c0,0.477 0.158,2.066 -0.636,2.066c-0.159,0 -0.794,-0.318 -0.794,-0.636c0,-0.159 0.317,-0.159 0.476,-0.159l0.159,-1.747Zm97.706,-14.616c0,-0.159 0.159,-1.271 0.477,-1.271c0.159,0 0.159,0.635 0.159,0.794c0,0.794 -0.795,1.748 -1.271,2.224l0,0.318l-0.636,0l0,-0.636c0.477,-0.158 0.636,-0.794 0.636,-1.271l0.635,-0.158Zm-78.959,-11.598c0.318,0.318 1.271,1.112 1.271,1.589c0,0.317 -0.318,0.317 -0.635,0.317c-0.477,0 -1.271,-0.159 -1.271,-0.794l0.635,-1.112Zm88.65,26.055c0,0.953 0.636,0.318 0.636,1.112l-0.636,0.794c0,0.795 -0.159,1.589 -1.112,1.589l1.112,-3.495Zm19.541,-105.014c0,-0.318 0.159,-0.795 0.477,-0.795c0.318,0 0.794,0.318 0.794,0.636c0,0.159 -0.317,0.159 -0.317,0.159l-1.589,0.953c-0.159,0.318 -0.477,0.953 -0.794,0.953c-0.318,0 -0.318,-0.476 -0.318,-0.635c0.953,0 0.794,-1.271 1.747,-1.271Zm24.308,-1.748l1.112,0.477c0,0.794 -0.477,1.271 -0.477,1.906l-1.271,-0.794c0.477,-0.318 0.636,-1.112 0.636,-1.589Zm-69.268,124.873c0,-1.112 0.318,-2.065 0.476,-3.018l0,0.317l-0.158,1.112c0.317,0 0.794,0 0.794,0.477c0,0.794 -0.318,1.271 -1.271,1.43l0.159,-0.318Zm-41.307,-149.498l0,-2.542l-0.635,-0.159l-0.159,1.271c0,0.477 0.159,1.271 0.794,1.43Zm71.175,117.406l-0.477,1.112c0,0.318 -0.159,0.953 -0.477,0.953c-0.476,0 -0.476,-0.794 -0.476,-1.112c0,-0.317 0.318,-0.953 0.635,-0.635l0.636,-0.318l0.159,0Zm-26.214,24.943c0,-0.159 0.159,-0.794 0.477,-0.794l0,0.476l-1.113,1.748c0,0.159 0,0.635 -0.158,0.635c-0.318,0 -0.318,-0.794 -0.318,-0.953l0.476,-0.953l0.636,-0.159Zm22.401,-46.549l1.271,0.476c-0.636,0 -0.795,0.636 -0.636,1.112l-1.271,-0.317c0,-0.795 0.636,-0.477 0.636,-1.271Zm-32.887,64.66l0.954,-2.383l0.635,-0.318l-0.953,1.907c0,0.159 -0.159,0.794 -0.159,1.112l-0.477,0.953l0,-1.271Zm13.504,-22.242c-0.158,0.318 -1.112,2.542 -1.112,2.542c-0.159,0 -0.159,-0.317 -0.159,-0.317c0,-0.954 0.159,-2.225 1.271,-2.225Zm-90.397,-1.906c0,-0.159 0.476,-1.271 0.635,-1.271l0,0.318c0,0.794 -0.635,1.112 -0.635,1.906l-1.271,0.953l0.635,-0.635c-0.159,-0.477 0,-1.271 0.636,-1.271Zm58.782,-30.821c0,0.953 3.177,0.159 3.654,0l-3.654,0Zm-54.652,22.401c0,0.953 -0.476,1.906 -0.476,2.859l-0.636,-1.112l1.112,-1.747Zm67.997,-65.932c0,0.318 -0.159,0.794 -0.476,0.794c-0.477,0 -0.954,-0.794 -1.271,-1.112l1.747,0.318Zm46.232,52.586c0,-0.158 0,-0.953 0.159,-0.953c0.159,0 0.317,0.795 0.317,0.953c-1.112,0 0.159,1.271 -1.112,1.271c0,-0.476 0.159,-1.112 0.636,-1.271Zm-28.438,43.531l0.476,0.795c-0.476,0.635 -0.953,1.271 -1.271,1.906l0.795,-2.701Zm-14.934,-103.902c-0.318,0 -0.477,0.159 -0.794,0.318c0.158,0.477 0.635,0.953 1.271,0.953l-0.318,-0.635c0,-0.159 0.159,-0.636 -0.159,-0.636Zm-21.765,37.494c0.317,0.318 0.635,0.794 0.635,1.112c0,0.318 -0.318,0.477 -0.635,0.477c0,-0.477 -0.159,-0.954 -0.318,-1.43c0.159,0 0.159,0 0.318,-0.159Zm42.1,-3.177l-0.953,1.747c0.636,0 0.953,-0.159 0.953,-0.794l0,-0.953Zm-18.587,74.828c-0.159,0.635 -0.477,1.271 -0.954,1.748l0,-0.795l0.159,0l0,-0.476l0.795,-0.477Zm-28.28,-151.087c-0.794,-0.159 -0.794,-1.271 -0.158,-1.271c0.317,0 0.158,0.953 0.158,1.271Zm37.335,133.611c0,-0.159 0,-0.953 0.318,-0.953c0.159,0 0.159,0.635 0.159,0.794l-0.477,0.636c-0.159,0 -0.476,-0.159 -0.476,-0.318c0,-0.159 0.476,-0.159 0.476,-0.159Zm-14.139,-98.5c-0.159,0.159 -0.318,0.318 -0.318,0.476c0,0.159 0.635,0.636 0.794,0.795l-0.159,0.635l0.159,0l0,-1.43l-0.476,-0.476Zm0.476,-3.654l-0.317,-0.477l0,-0.159c0.794,0.159 0.794,1.112 0.794,1.748c-0.477,-0.159 -0.477,-0.794 -0.477,-1.112Zm4.131,13.822l0.159,0l0.476,1.588c0,0.159 -0.158,0.159 -0.476,0.159c0,-0.635 -0.159,-1.112 -0.159,-1.747Zm-24.307,32.092l0.317,-0.159c0.318,0 0.318,1.112 0.318,1.747c-0.159,-0.476 -0.477,-0.953 -0.635,-1.588Zm48.773,22.718c0.159,-0.159 0.477,-0.159 0.794,-0.159c0.159,0 0.318,0.159 0.318,0.318c-0.159,0.159 -0.476,0.318 -0.794,0.318c-0.159,0 -0.318,-0.318 -0.318,-0.477Zm-36.54,-76.576l0.635,-0.794l0.159,0.635c0,0.159 -0.159,0.477 -0.318,0.477l-0.476,-0.318Zm-3.019,-14.934c0.477,0 0.953,0.318 1.43,0.477l-0.477,0.159c-0.159,0 -0.953,-0.318 -0.953,-0.636Zm5.561,13.345l1.271,0.159c-0.159,0.159 -0.318,0.477 -0.477,0.477c-0.318,0 -0.636,-0.477 -0.794,-0.636Zm17.634,47.662c0.159,0 0.159,-0.159 0.318,-0.159c0.159,0 0.318,0.159 0.318,0.318c0,0.159 0,0.476 -0.318,0.476c-0.159,0 -0.318,-0.476 -0.318,-0.635Zm40.036,10.962c0.159,0 0.159,-0.159 0.318,-0.159c0.159,0 0.317,0.159 0.317,0.318c0,0.159 0,0.477 -0.317,0.477c-0.159,0 -0.318,-0.477 -0.318,-0.636Zm-61.96,-68.632l0.636,-0.477c0.158,0.159 0.158,0.318 0.158,0.477c0,0.158 -0.158,0.317 -0.317,0.317c-0.159,0 -0.318,-0.159 -0.477,-0.317Zm-13.981,-11.916l0.636,0.318c0,0.159 -0.159,0.477 -0.318,0.477c-0.318,0 -0.318,-0.318 -0.318,-0.477l0,-0.318Zm54.334,128.21c0,0 0,-0.795 0.159,-0.795l0.159,0.795c-0.794,0 -0.159,0.953 -0.953,0.953l0.635,-0.953Zm-93.893,-18.588l0.159,0c0.318,0 0.477,0 0.477,0.317c0,0.159 0,0.318 -0.159,0.318c-0.318,0 -0.477,-0.318 -0.477,-0.635Zm59.895,-72.128l0.318,-0.318c0.317,0 0.635,0.318 0.635,0.636l-0.953,-0.318Zm56.24,41.783l0.159,0c0.318,0 0.477,0 0.477,0.318c0,0.159 0,0.318 -0.159,0.318c-0.318,0 -0.477,-0.318 -0.477,-0.636Zm-11.597,24.307l1.271,0.159c-0.318,0.159 -1.271,0.477 -1.271,-0.159Zm43.213,-87.538l0.635,1.112c-0.317,0 -0.635,-0.159 -0.635,-0.476l0,-0.636Zm-39.559,88.174l0.635,0.159c0,0.159 0,0.476 -0.317,0.476c-0.159,0 -0.318,-0.317 -0.318,-0.476l0,-0.159Zm-62.278,-109.939l0.636,-0.477c0.159,0.159 0.159,0.318 0.159,0.477c0,0.159 -0.159,0.159 -0.318,0.159c-0.159,0 -0.318,0 -0.477,-0.159Zm-9.691,67.361c0.318,0 0.636,0.318 0.636,0.636c-0.477,0 -0.636,-0.159 -0.636,-0.636Zm20.336,-43.689l0.635,-0.477c0.159,0.159 0.159,0.159 0.159,0.318c0,0.159 -0.159,0.318 -0.318,0.318c-0.159,0 -0.317,0 -0.476,-0.159Zm22.877,108.35l0.953,0.159c-0.159,0.159 -0.476,0.318 -0.635,0.318c-0.318,0 -0.318,-0.318 -0.318,-0.477Zm-3.018,26.532l0,-0.636c0.158,0 0.317,0.477 0.317,0.636l-0.635,0.794l0.318,-0.794Zm36.699,-71.651c0.159,0 0.318,-0.159 0.318,-0.159c0.158,0 0.317,0.159 0.317,0.317c0,0.159 -0.159,0.318 -0.317,0.318c-0.159,0 -0.318,-0.318 -0.318,-0.476Zm-115.976,38.129l0.476,0.794l-0.476,0.318l0,-1.112Zm137.741,-77.688l0.636,0.158c0,0.159 0,0.477 -0.318,0.477c-0.159,0 -0.318,-0.477 -0.318,-0.635Zm-90.556,40.671l0.635,0.159c0,0.158 0,0.476 -0.318,0.476c-0.159,0 -0.317,-0.476 -0.317,-0.635Zm63.866,15.887l0.635,0.159c0,0.159 0,0.476 -0.317,0.476c-0.159,0 -0.318,-0.476 -0.318,-0.635Zm-32.728,9.691l0.636,0.159c0,0.159 0,0.476 -0.318,0.476c-0.159,0 -0.318,-0.476 -0.318,-0.635Zm-51.156,-29.232l0.635,0.158c0,0.159 0,0.477 -0.318,0.477c-0.158,0 -0.317,-0.477 -0.317,-0.635Zm28.279,-58.942l0.318,0.159l-0.159,0.477c-0.318,-0.159 -0.477,-0.318 -0.477,-0.636l0.318,0Zm-13.663,-16.046l0,-0.159c0,-0.158 0,-0.317 0.159,-0.317c0.159,0 0.476,0 0.476,0.159c0,0.317 -0.476,0.317 -0.635,0.317Zm79.118,84.202l0.477,1.112c-0.318,0 -0.477,0 -0.477,-0.317l0,-0.795Zm-44.325,65.773l0.159,-0.159c0.159,0.159 0.317,0.159 0.476,0l0.159,0.318c-0.159,0 -0.318,0.159 -0.476,0.159c-0.159,0 -0.318,-0.159 -0.318,-0.318Zm-18.112,-137.424l0.477,-0.476c0.159,0.158 0.159,0.158 0.159,0.317c0,0.318 -0.159,0.318 -0.318,0.318c-0.159,0 -0.159,-0.159 -0.318,-0.159Zm-16.363,-11.439c0,-0.317 0.159,-0.476 0.317,-0.476c0.159,0 0.318,0 0.318,0.159c0,0.159 -0.318,0.317 -0.476,0.317l-0.159,0Zm-38.606,109.145c0.318,0 0.635,0.159 0.635,0.477l-0.476,0c-0.159,0 -0.159,-0.318 -0.159,-0.477Zm30.662,-123.92c0,-0.317 0,-0.635 0.318,-0.635l0.159,0c0,0.318 -0.159,0.635 -0.477,0.635Zm31.933,169.198l0.318,0.159l0,0.477l-0.318,0.318l0,-0.954Zm15.729,-9.691l0.317,-1.112l0,0.953c0,0.318 -0.159,0.318 -0.317,0.318l-0.159,0l0.159,-0.159Zm10.803,-20.335l1.112,0.159c-0.318,0.158 -1.112,0.317 -1.112,-0.159Zm-27.326,42.101l1.112,-1.271l-0.477,1.112l-0.635,0.159Zm3.813,-85.314c0.318,0 0.635,0.159 0.635,0.476l-0.159,0c-0.317,0 -0.476,-0.159 -0.476,-0.476Zm-68.156,27.961c0.318,0 0.635,0.159 0.635,0.477l-0.317,0c-0.318,0 -0.318,-0.318 -0.318,-0.477Zm60.689,-95.482c0.159,0 0.318,0.636 0.318,0.636l-0.477,0.318l0.159,-0.636l0,-0.318Zm-34.475,63.231c0.317,0 0.635,0.159 0.635,0.477l-0.318,0c-0.317,0 -0.317,-0.318 -0.317,-0.477Zm-2.383,4.925l0.476,1.112c-0.317,0 -0.476,-0.317 -0.476,-0.635l0,-0.477Zm41.942,-53.222c0.159,0.159 0.476,0.318 0.476,0.636c0,0.159 -0.159,0.159 -0.317,0.159l-0.159,-0.795Zm-4.925,-9.85c0,-0.159 0.159,-0.159 0.159,-0.159c0.158,0 0.317,0.159 0.476,0.318l-0.159,0.159c-0.159,0 -0.476,-0.159 -0.476,-0.318Zm68.156,44.961l0.158,0c0.318,0 0.477,0 0.477,0.318l-0.477,0c-0.158,0 -0.158,-0.159 -0.158,-0.318Zm-40.83,45.437c0,-0.318 0.158,-0.477 0.476,-0.635c0,0.317 0,0.635 -0.476,0.635Zm27.484,-33.998c0.318,0 0.477,0.158 0.477,0.476l-0.318,0c-0.159,0 -0.159,-0.318 -0.159,-0.476Zm-38.288,53.38c0,0 0,-0.158 0.159,-0.158c0.159,0 0.318,0.317 0.318,0.476l-0.318,0c-0.159,0 -0.159,-0.159 -0.159,-0.318Zm-21.606,-117.564l-0.477,0.476c0,-0.318 0.159,-0.635 0.318,-0.794l0.159,0.318Zm-55.129,109.303l-0.317,0.318l0.317,-1.271l0,0.953Zm94.052,4.766l0.477,0c0,0.159 0,0.477 -0.159,0.477l-0.318,-0.477Zm-1.906,2.383c0,0.159 0,0.477 -0.159,0.477l-0.318,-0.477l0.477,0Zm-14.457,0c0,0.159 0,0.477 -0.159,0.477l-0.318,-0.477l0.477,0Zm-19.383,-112.798c0.159,-0.159 0.318,-0.477 0.477,-0.477c0.159,0 0.318,0 0.318,0.159l-0.795,0.318Zm18.906,115.34l0.477,0.159c0,0.159 0,0.318 -0.159,0.318c-0.159,0 -0.318,-0.318 -0.318,-0.477Zm-12.392,22.719l0.159,0c-0.159,0.318 -0.159,0.794 -0.477,0.953l0.318,-0.953Zm29.232,-32.569l0.159,0c0.159,0 0.318,0 0.318,0.159c0,0.159 -0.159,0.159 -0.159,0.159c-0.318,0 -0.318,-0.159 -0.318,-0.318Zm-18.27,30.98c0,0.159 0,0.477 -0.159,0.477c-0.159,-0.159 -0.159,-0.318 -0.159,-0.477l0.318,0Zm-3.495,-8.42c-0.318,0.635 -0.477,1.271 -0.953,1.748l0.953,-1.748Zm34.157,-40.195l0.318,0l0.318,0.159c-0.159,0 -0.477,0 -0.636,0.159l0,-0.318Zm-44.801,60.689l-0.636,1.271l0.318,-0.317l0.318,-0.954Zm0.476,-145.526l0.159,0.318l-0.159,0.794l0,-1.112Zm2.86,134.246c0.159,0 0.318,0.159 0.318,0.318l-0.318,0l0,-0.318Zm-6.99,-141.554l0,-0.318l0.158,-0.159l0,0.477l-0.158,0Zm7.466,140.76l0,0.477c-0.158,-0.159 -0.158,-0.318 -0.158,-0.477l0.158,0Zm-2.859,5.561c0,-0.318 0.159,-0.318 0.318,-0.318l-0.318,0.318Zm14.616,-11.28c0.159,0 0.159,0.159 0.159,0.318l0,0.158l-0.159,-0.476Zm0,3.972l0.159,0l0,0.317l-0.159,-0.317Zm-0.636,-20.018l0.159,0l-0.159,0.159l0,-0.159Z" style="fill-rule:nonzero;stroke:#00cae3;stroke-width:3px;stroke-linecap:butt;stroke-miterlimit:2;"/></g></g><path d="M69.542,285.025l0,21.42l4.71,0l0,-9.24l8.67,0l0,9.24l4.71,0l0,-21.42l-4.71,0l0,8.22l-8.67,0l0,-8.22l-4.71,0Z" style="fill-rule:nonzero;stroke:#00cae3;stroke-width:1px;stroke-linecap:butt;stroke-miterlimit:2;"/><path d="M109.952,298.345l0,-13.32l-4.71,0l0,13.32c0,1.6 -0.32,2.775 -0.96,3.525c-0.64,0.75 -1.8,1.125 -3.48,1.125c-0.96,0 -1.725,-0.135 -2.295,-0.405c-0.57,-0.27 -1.015,-0.62 -1.335,-1.05c-0.32,-0.43 -0.53,-0.925 -0.63,-1.485c-0.1,-0.56 -0.15,-1.13 -0.15,-1.71l0,-13.32l-4.71,0l0,13.32c0,2.92 0.795,5.08 2.385,6.48c1.59,1.4 3.835,2.1 6.735,2.1c2.86,0 5.1,-0.705 6.72,-2.115c1.62,-1.41 2.43,-3.565 2.43,-6.465Z" style="fill-rule:nonzero;stroke:#00cae3;stroke-width:1px;stroke-linecap:butt;stroke-miterlimit:2;"/><path d="M129.482,304.015l0.48,2.43l3,0l0,-11.58l-9,0l0,3.51l4.74,0c-0.14,1.5 -0.635,2.645 -1.485,3.435c-0.85,0.79 -2.055,1.185 -3.615,1.185c-1.06,0 -1.96,-0.205 -2.7,-0.615c-0.74,-0.41 -1.34,-0.955 -1.8,-1.635c-0.46,-0.68 -0.795,-1.445 -1.005,-2.295c-0.21,-0.85 -0.315,-1.725 -0.315,-2.625c0,-0.94 0.105,-1.85 0.315,-2.73c0.21,-0.88 0.545,-1.665 1.005,-2.355c0.46,-0.69 1.06,-1.24 1.8,-1.65c0.74,-0.41 1.64,-0.615 2.7,-0.615c1.14,0 2.11,0.3 2.91,0.9c0.8,0.6 1.34,1.5 1.62,2.7l4.5,0c-0.12,-1.22 -0.45,-2.3 -0.99,-3.24c-0.54,-0.94 -1.225,-1.73 -2.055,-2.37c-0.83,-0.64 -1.76,-1.125 -2.79,-1.455c-1.03,-0.33 -2.095,-0.495 -3.195,-0.495c-1.64,0 -3.115,0.29 -4.425,0.87c-1.31,0.58 -2.415,1.38 -3.315,2.4c-0.9,1.02 -1.59,2.215 -2.07,3.585c-0.48,1.37 -0.72,2.855 -0.72,4.455c0,1.56 0.24,3.015 0.72,4.365c0.48,1.35 1.17,2.525 2.07,3.525c0.9,1 2.005,1.785 3.315,2.355c1.31,0.57 2.785,0.855 4.425,0.855c1.04,0 2.07,-0.215 3.09,-0.645c1.02,-0.43 1.95,-1.185 2.79,-2.265Z" style="fill-rule:nonzero;stroke:#00cae3;stroke-width:1px;stroke-linecap:butt;stroke-miterlimit:2;"/><path d="M140.552,295.825c0,-0.94 0.105,-1.85 0.315,-2.73c0.21,-0.88 0.545,-1.665 1.005,-2.355c0.46,-0.69 1.06,-1.24 1.8,-1.65c0.74,-0.41 1.64,-0.615 2.7,-0.615c1.06,0 1.96,0.205 2.7,0.615c0.74,0.41 1.34,0.96 1.8,1.65c0.46,0.69 0.795,1.475 1.005,2.355c0.21,0.88 0.315,1.79 0.315,2.73c0,0.9 -0.105,1.775 -0.315,2.625c-0.21,0.85 -0.545,1.615 -1.005,2.295c-0.46,0.68 -1.06,1.225 -1.8,1.635c-0.74,0.41 -1.64,0.615 -2.7,0.615c-1.06,0 -1.96,-0.205 -2.7,-0.615c-0.74,-0.41 -1.34,-0.955 -1.8,-1.635c-0.46,-0.68 -0.795,-1.445 -1.005,-2.295c-0.21,-0.85 -0.315,-1.725 -0.315,-2.625Zm-4.71,0c0,1.56 0.24,3.015 0.72,4.365c0.48,1.35 1.17,2.525 2.07,3.525c0.9,1 2.005,1.785 3.315,2.355c1.31,0.57 2.785,0.855 4.425,0.855c1.66,0 3.14,-0.285 4.44,-0.855c1.3,-0.57 2.4,-1.355 3.3,-2.355c0.9,-1 1.59,-2.175 2.07,-3.525c0.48,-1.35 0.72,-2.805 0.72,-4.365c0,-1.6 -0.24,-3.085 -0.72,-4.455c-0.48,-1.37 -1.17,-2.565 -2.07,-3.585c-0.9,-1.02 -2,-1.82 -3.3,-2.4c-1.3,-0.58 -2.78,-0.87 -4.44,-0.87c-1.64,0 -3.115,0.29 -4.425,0.87c-1.31,0.58 -2.415,1.38 -3.315,2.4c-0.9,1.02 -1.59,2.215 -2.07,3.585c-0.48,1.37 -0.72,2.855 -0.72,4.455Z" style="fill-rule:nonzero;stroke:#00cae3;stroke-width:1px;stroke-linecap:butt;stroke-miterlimit:2;"/><path d="M160.112,285.025l0,21.42l4.41,0l0,-15.03l0.06,0l5.25,15.03l3.63,0l5.25,-15.18l0.06,0l0,15.18l4.41,0l0,-21.42l-6.63,0l-4.74,14.73l-0.06,0l-5.01,-14.73l-6.63,0Z" style="fill-rule:nonzero;stroke:#00cae3;stroke-width:1px;stroke-linecap:butt;stroke-miterlimit:2;"/><path d="M192.722,298.165l2.79,-7.86l0.06,0l2.7,7.86l-5.55,0Zm0.45,-13.14l-8.1,21.42l4.74,0l1.68,-4.77l8.01,0l1.62,4.77l4.89,0l-8.01,-21.42l-4.83,0Z" style="fill-rule:nonzero;stroke:#00cae3;stroke-width:1px;stroke-linecap:butt;stroke-miterlimit:2;"/><path d="M211.082,299.335l-4.56,0c-0.02,1.32 0.22,2.46 0.72,3.42c0.5,0.96 1.175,1.75 2.025,2.37c0.85,0.62 1.83,1.075 2.94,1.365c1.11,0.29 2.255,0.435 3.435,0.435c1.46,0 2.745,-0.17 3.855,-0.51c1.11,-0.34 2.04,-0.815 2.79,-1.425c0.75,-0.61 1.315,-1.335 1.695,-2.175c0.38,-0.84 0.57,-1.75 0.57,-2.73c0,-1.2 -0.255,-2.185 -0.765,-2.955c-0.51,-0.77 -1.115,-1.385 -1.815,-1.845c-0.7,-0.46 -1.405,-0.795 -2.115,-1.005c-0.71,-0.21 -1.265,-0.355 -1.665,-0.435c-1.34,-0.34 -2.425,-0.62 -3.255,-0.84c-0.83,-0.22 -1.48,-0.44 -1.95,-0.66c-0.47,-0.22 -0.785,-0.46 -0.945,-0.72c-0.16,-0.26 -0.24,-0.6 -0.24,-1.02c0,-0.46 0.1,-0.84 0.3,-1.14c0.2,-0.3 0.455,-0.55 0.765,-0.75c0.31,-0.2 0.655,-0.34 1.035,-0.42c0.38,-0.08 0.76,-0.12 1.14,-0.12c0.58,0 1.115,0.05 1.605,0.15c0.49,0.1 0.925,0.27 1.305,0.51c0.38,0.24 0.685,0.57 0.915,0.99c0.23,0.42 0.365,0.95 0.405,1.59l4.56,0c0,-1.24 -0.235,-2.295 -0.705,-3.165c-0.47,-0.87 -1.105,-1.585 -1.905,-2.145c-0.8,-0.56 -1.715,-0.965 -2.745,-1.215c-1.03,-0.25 -2.105,-0.375 -3.225,-0.375c-0.96,0 -1.92,0.13 -2.88,0.39c-0.96,0.26 -1.82,0.66 -2.58,1.2c-0.76,0.54 -1.375,1.215 -1.845,2.025c-0.47,0.81 -0.705,1.765 -0.705,2.865c0,0.98 0.185,1.815 0.555,2.505c0.37,0.69 0.855,1.265 1.455,1.725c0.6,0.46 1.28,0.835 2.04,1.125c0.76,0.29 1.54,0.535 2.34,0.735c0.78,0.22 1.55,0.42 2.31,0.6c0.76,0.18 1.44,0.39 2.04,0.63c0.6,0.24 1.085,0.54 1.455,0.9c0.37,0.36 0.555,0.83 0.555,1.41c0,0.54 -0.14,0.985 -0.42,1.335c-0.28,0.35 -0.63,0.625 -1.05,0.825c-0.42,0.2 -0.87,0.335 -1.35,0.405c-0.48,0.07 -0.93,0.105 -1.35,0.105c-0.62,0 -1.22,-0.075 -1.8,-0.225c-0.58,-0.15 -1.085,-0.38 -1.515,-0.69c-0.43,-0.31 -0.775,-0.715 -1.035,-1.215c-0.26,-0.5 -0.39,-1.11 -0.39,-1.83Z" style="fill-rule:nonzero;stroke:#00cae3;stroke-width:1px;stroke-linecap:butt;stroke-miterlimit:2;"/><path d="M230.552,299.335l-4.56,0c-0.02,1.32 0.22,2.46 0.72,3.42c0.5,0.96 1.175,1.75 2.025,2.37c0.85,0.62 1.83,1.075 2.94,1.365c1.11,0.29 2.255,0.435 3.435,0.435c1.46,0 2.745,-0.17 3.855,-0.51c1.11,-0.34 2.04,-0.815 2.79,-1.425c0.75,-0.61 1.315,-1.335 1.695,-2.175c0.38,-0.84 0.57,-1.75 0.57,-2.73c0,-1.2 -0.255,-2.185 -0.765,-2.955c-0.51,-0.77 -1.115,-1.385 -1.815,-1.845c-0.7,-0.46 -1.405,-0.795 -2.115,-1.005c-0.71,-0.21 -1.265,-0.355 -1.665,-0.435c-1.34,-0.34 -2.425,-0.62 -3.255,-0.84c-0.83,-0.22 -1.48,-0.44 -1.95,-0.66c-0.47,-0.22 -0.785,-0.46 -0.945,-0.72c-0.16,-0.26 -0.24,-0.6 -0.24,-1.02c0,-0.46 0.1,-0.84 0.3,-1.14c0.2,-0.3 0.455,-0.55 0.765,-0.75c0.31,-0.2 0.655,-0.34 1.035,-0.42c0.38,-0.08 0.76,-0.12 1.14,-0.12c0.58,0 1.115,0.05 1.605,0.15c0.49,0.1 0.925,0.27 1.305,0.51c0.38,0.24 0.685,0.57 0.915,0.99c0.23,0.42 0.365,0.95 0.405,1.59l4.56,0c0,-1.24 -0.235,-2.295 -0.705,-3.165c-0.47,-0.87 -1.105,-1.585 -1.905,-2.145c-0.8,-0.56 -1.715,-0.965 -2.745,-1.215c-1.03,-0.25 -2.105,-0.375 -3.225,-0.375c-0.96,0 -1.92,0.13 -2.88,0.39c-0.96,0.26 -1.82,0.66 -2.58,1.2c-0.76,0.54 -1.375,1.215 -1.845,2.025c-0.47,0.81 -0.705,1.765 -0.705,2.865c0,0.98 0.185,1.815 0.555,2.505c0.37,0.69 0.855,1.265 1.455,1.725c0.6,0.46 1.28,0.835 2.04,1.125c0.76,0.29 1.54,0.535 2.34,0.735c0.78,0.22 1.55,0.42 2.31,0.6c0.76,0.18 1.44,0.39 2.04,0.63c0.6,0.24 1.085,0.54 1.455,0.9c0.37,0.36 0.555,0.83 0.555,1.41c0,0.54 -0.14,0.985 -0.42,1.335c-0.28,0.35 -0.63,0.625 -1.05,0.825c-0.42,0.2 -0.87,0.335 -1.35,0.405c-0.48,0.07 -0.93,0.105 -1.35,0.105c-0.62,0 -1.22,-0.075 -1.8,-0.225c-0.58,-0.15 -1.085,-0.38 -1.515,-0.69c-0.43,-0.31 -0.775,-0.715 -1.035,-1.215c-0.26,-0.5 -0.39,-1.11 -0.39,-1.83Z" style="fill-rule:nonzero;stroke:#00cae3;stroke-width:1px;stroke-linecap:butt;stroke-miterlimit:2;"/><path d="M252.212,298.165l2.79,-7.86l0.06,0l2.7,7.86l-5.55,0Zm0.45,-13.14l-8.1,21.42l4.74,0l1.68,-4.77l8.01,0l1.62,4.77l4.89,0l-8.01,-21.42l-4.83,0Z" style="fill-rule:nonzero;stroke:#00cae3;stroke-width:1px;stroke-linecap:butt;stroke-miterlimit:2;"/><path d="M272.072,294.715l0,-6.03l5.16,0c1.08,0 1.89,0.235 2.43,0.705c0.54,0.47 0.81,1.225 0.81,2.265c0,1.08 -0.27,1.86 -0.81,2.34c-0.54,0.48 -1.35,0.72 -2.43,0.72l-5.16,0Zm-4.71,-9.69l0,21.42l4.71,0l0,-8.37l4.71,0c1.18,0 2.03,0.26 2.55,0.78c0.52,0.52 0.86,1.34 1.02,2.46c0.12,0.86 0.21,1.76 0.27,2.7c0.06,0.94 0.22,1.75 0.48,2.43l4.71,0c-0.22,-0.3 -0.385,-0.665 -0.495,-1.095c-0.11,-0.43 -0.19,-0.885 -0.24,-1.365c-0.05,-0.48 -0.085,-0.95 -0.105,-1.41c-0.02,-0.46 -0.04,-0.86 -0.06,-1.2c-0.04,-0.54 -0.115,-1.08 -0.225,-1.62c-0.11,-0.54 -0.285,-1.035 -0.525,-1.485c-0.24,-0.45 -0.55,-0.84 -0.93,-1.17c-0.38,-0.33 -0.86,-0.575 -1.44,-0.735l0,-0.06c1.2,-0.48 2.065,-1.18 2.595,-2.1c0.53,-0.92 0.795,-2.01 0.795,-3.27c0,-0.82 -0.145,-1.585 -0.435,-2.295c-0.29,-0.71 -0.71,-1.335 -1.26,-1.875c-0.55,-0.54 -1.21,-0.965 -1.98,-1.275c-0.77,-0.31 -1.635,-0.465 -2.595,-0.465l-11.55,0Z" style="fill-rule:nonzero;stroke:#00cae3;stroke-width:1px;stroke-linecap:butt;stroke-miterlimit:2;"/><path d="M293.732,294.715l0,-6.03l5.16,0c1.08,0 1.89,0.235 2.43,0.705c0.54,0.47 0.81,1.225 0.81,2.265c0,1.08 -0.27,1.86 -0.81,2.34c-0.54,0.48 -1.35,0.72 -2.43,0.72l-5.16,0Zm-4.71,-9.69l0,21.42l4.71,0l0,-8.37l4.71,0c1.18,0 2.03,0.26 2.55,0.78c0.52,0.52 0.86,1.34 1.02,2.46c0.12,0.86 0.21,1.76 0.27,2.7c0.06,0.94 0.22,1.75 0.48,2.43l4.71,0c-0.22,-0.3 -0.385,-0.665 -0.495,-1.095c-0.11,-0.43 -0.19,-0.885 -0.24,-1.365c-0.05,-0.48 -0.085,-0.95 -0.105,-1.41c-0.02,-0.46 -0.04,-0.86 -0.06,-1.2c-0.04,-0.54 -0.115,-1.08 -0.225,-1.62c-0.11,-0.54 -0.285,-1.035 -0.525,-1.485c-0.24,-0.45 -0.55,-0.84 -0.93,-1.17c-0.38,-0.33 -0.86,-0.575 -1.44,-0.735l0,-0.06c1.2,-0.48 2.065,-1.18 2.595,-2.1c0.53,-0.92 0.795,-2.01 0.795,-3.27c0,-0.82 -0.145,-1.585 -0.435,-2.295c-0.29,-0.71 -0.71,-1.335 -1.26,-1.875c-0.55,-0.54 -1.21,-0.965 -1.98,-1.275c-0.77,-0.31 -1.635,-0.465 -2.595,-0.465l-11.55,0Z" style="fill-rule:nonzero;stroke:#00cae3;stroke-width:1px;stroke-linecap:butt;stroke-miterlimit:2;"/><rect x="310.682" y="285.025" width="4.71" height="21.42" style="fill-rule:nonzero;stroke:#00cae3;stroke-width:1px;stroke-linecap:butt;stroke-miterlimit:2;"/></svg>